<svg id="Layer_1" data-name="Layer 1" xmlns="http://www.w3.org/2000/svg" viewBox="0 0 3371.22 3371.22"><defs><style>.cls-1{fill:#fefefe;}.cls-2{fill:#131313;}.cls-3{fill:#b5b5b5;}.cls-4{fill:#e9e9e8;}.cls-5{fill:#e6e6e5;}.cls-6{fill:#f3f3f3;}</style></defs><title>Bones 4 (BW)</title><path class="cls-1" d="M362.7,1935.49q0-835.26-.31-1670.51c0-12.33,2.78-15.1,15.11-15.1q1670.51.5,3341,0c12.32,0,15.1,2.77,15.1,15.1q-.49,1670.51,0,3341c0,12.33-2.78,15.11-15.1,15.11q-1670.5-.49-3341,0c-12.33,0-15.12-2.78-15.11-15.11Q362.93,2770.75,362.7,1935.49Zm1447-281.18c8.87-28,8.39-56.93,7.63-85.8-.16-6.11,1.87-13.66-6-17.41s-13.93.16-19.36,4.82c-20.35,17.44-41,34.55-60.49,53-18.52,17.56-35.64,36.61-55.42,57.13-1.9-7-2.61-10-3.52-13-6.44-20.81-8.58-22.46-30.36-19.12-39.26,6-78.29,13.61-117.91,17.11-6,.53-8.23,4.62-10.89,8.68-43,65.68-83.55,132.77-114.78,205.06-1.78,4.12-3.53,7.88-2.15,12.5,9,30.29,12.83,61.67,19.25,92.51,1.31,6.29,4.31,13.3-3.39,17.58-9,5-11.61-4-14.93-8.49-20.43-27.31-47.11-46.28-76.48-63.14-45-25.85-96.93-26.39-144.92-41.65-92-29.26-188.19-45-278.24-81.64-16.52-6.74-32.89-8.94-50.84-3.26-18.55,5.87-38,8.36-57.57,10.65-21.25,2.49-42.55,2.22-63.73,4.78-47.6,5.75-95-1.08-142.38-4.36-21.06-1.46-42.56-5.73-63,2.51-13.63,5.52-16.84,16-7.11,23.27,24.65,18.42,45.29,43.09,76.86,51.25,7.4,1.91,15,27.1,10,32.18-3.25,3.26-5.72.12-8.48-1.31-12.14-6.29-23.93-13-34.74-21.56-10.22-8.12-19.38-17.85-31.68-23.09-11.25-4.8-22.46,0-24.14,10.33-1.57,9.67-1.3,19.86-4.31,29-4.87,14.81,1.91,23.23,12.23,32.13,51.92,44.79,98.05,95.07,141.45,148.15,15.47,18.93,30.78,38.34,49.18,55,10,9,20,14.76,33.68,12.56,35.68-5.76,70.76,2.68,106,5.17,34,2.4,65,11.51,88.94,39.81,22.6,26.67,47.84,51.08,67.27,80.46,3.94,6,7.3,10.59-.36,16.36-5.18,3.9-11.57,10.05-6.56,16.4,6,7.61,12.59-1.33,18.8-3.09,2.83-.8,5-4.09,7.36-6.32,45.25-42.15,93.08-81,145.19-114.46,11.26-7.23,23.34-10.82,36.8-11.71,35.62-2.36,71.19.58,106.77.27,8.28-.08,16.1-.67,23.61-5.25a1272,1272,0,0,1,114.74-62.18c18.13-8.65,36.55-16.7,54.51-25.69,5.25-2.63,14.49-5.53,10.58-13.49-3.42-7-11.36-3.86-17.55-1.21-7,3-14,5.74-21,8.88-3.82,1.75-8.15,3-10.09-1.24-11-24.18-27.13-45.49-40.07-69.87,47.46-3.7,91.69,8.69,136.36,14.39,81.34,10.39,162.5,21.73,244.52,24.85,9.61.37,14.14,4.11,16.69,11.95,4.86,15,8.73,30.3,14.1,45.08,10.11,27.85,13.56,58.49,34.16,82.05,6.07,6.94,12.66,13.95,16.69,22.08,14.74,29.76,28.59,60,44.8,89,2.77,5,8.64,11.38,4.08,16.14-4.41,4.59-12.51,2.41-18.83.48-15.65-4.79-31.07-4.93-46.44,1.1-3.17,1.25-8.77-.92-8.4,5.06.37,5.81,5.68,4.35,9,4,32.91-3.23,65,7.15,97.91,5.33a131.7,131.7,0,0,1,31,1.71c24.32,4.5,47.91.29,71.36-4.77,31-6.69,58.7-22.07,87.42-34.83,36.29-16.13,73.66-28.2,113.69-32.94,31.93-3.78,63.88-8,95.88-10.47,35.4-2.78,70.52-7.84,105.89-10.56q61.11-4.7,121.49-15.12c37-6.32,74.21-10.73,111.54-14.56,48.68-5,94.92,12,142.71,15.09,32.31,2.11,64.67,3.27,96.74.16,40.17-3.9,77.72-19.2,115.95-31.31,27.18-8.61,55.41-15.64,83.46-9.48,35,7.67,67.63,5.68,99.68-10.2a78,78,0,0,1,49.43-6.69,224.78,224.78,0,0,1,70,25.53c32,18.29,64.74,32.67,100.77,40a645.45,645.45,0,0,0,79.28,10.68c3.41.26,8.58,1.76,9.42-3.66.8-5.14-3.17-8.08-7.64-9.14-7.92-1.87-15.92-3.78-24-4.52-23.26-2.13-24.55-2.91-29-26.52-7.9-41.7-17.2-83.13-25.17-124.76-5.8-30.33-24.6-54.54-30.77-85.08-10.07-49.94-28.93-98-46.82-145.9-10.45-28-16.84-58.44-35.41-82.17-18.83-24.07-39-47.17-57.85-71.37-8.94-11.51-20.45-13.9-33.64-9.42-9.76,3.32-19,8.31-29,10.87-20.77,5.36-23.87,10.3-16.83,31,11.09,32.57,25,64,39.4,95.2,7.8,17,7.83,17-10.15,17.33-24.17.49-26.26,4.29-13.59,25.84q31.11,52.95,62.62,105.67c7.1,11.8,9.74,23.55,5.33,37-5.93,18.1-11.07,36.47-16.47,54.74-1.18,4-.72,9.9-6.9,9-5.47-.79-5.17-6.59-5.28-10.62-.85-30.29-11.93-57.36-25.46-83.78-21.22-41.43-40.38-84.7-46-130.43-6.68-54.21-11.65-108.68-21-162.55-2.24-13,.84-28.45-10.17-38.42a186.55,186.55,0,0,0-43.43-29.09c-11.25-5.5-26.69.53-29,10.91-8.86,40.38-17.41,80.82-26.1,121.24-5.24,24.35-1.84,52.46-34.51,63.24-10.76,3.54-11.22,14-1.11,24.87,19.61,21.14,38,44,44.31,73.37,3.19,14.9,4.85,30.13,7.28,45.19q5.43,33.6,11,67.18l-3.79,1.36c-4.92-9.48-10.14-18.82-14.72-28.45-25.73-54.1-48-109.9-79.84-161-17.24-27.7-11.77-55,2.6-81.33,12-22,25.89-42.9,38.71-64.44,3.85-6.47,6.66-14.43,13.61-17.49,13.95-6.13,10-14.21,2.72-21.46-13.59-13.48-28.19-26.07-45.8-34.12-13.74-6.28-27.26-5.7-39.83,4-43.3,33.56-75.82,76.86-109.69,119.15-13.08,16.33-19.78,31.67-12.9,52.26,3.41,10.22,4,21.35,6.34,32,1.29,6,7.36,14.52.19,17.12-6.54,2.36-7.76-8.36-10.87-13.52-9-14.91-15.27-31.81-27.7-44.2-8.35-8.31-10.64-14.86-6.88-26.72,5.24-16.5,7.3-34.12,9.62-51.41,6.08-45.17,5.84-45.22,50-55a49.27,49.27,0,0,1,8.16-.81c8.12-.42,11.52-4.88,11.46-12.75-.11-12.6-.44-25.22.11-37.8.42-9.54-3.65-13.62-12.78-15.46-23.06-4.65-47.48-2.57-69.46-9-26.16-7.63-36.31,7.57-48.66,23.23-.41.52-1.77.3-2.75.43a8.81,8.81,0,0,1-1-2.76c-.07-10.41-.11-20.82,0-31.23.18-21.86-1.34-24.33-22.83-23.09-28.91,1.68-57.68,5.75-86.58,7.26-12.27.64-20.36,4.08-26.23,15.19-22.13,41.87-45.9,82.91-66.82,125.37-8.6,17.44-17.92,24.19-37.39,20.66-12.25-2.22-15.53-4.28-9.08-15.88,13.24-23.83,27.66-47.28,38-72.38,10.83-26.37,32.87-48.72,29.25-80.86-1.22-10.77-3.72-14.4-14.46-13.37-36,3.47-69.89,15.26-103.84,26.67a14.73,14.73,0,0,0-7.36,6c-27.35,46.48-59.89,89.71-85.92,137a51.3,51.3,0,0,0-6.65,28c.8,20.85.24,41.76.24,67.18-10.34-12.09-17.19-19.77-23.66-27.76-7.06-8.72-14.37-16.68-27-15.83-1.95-3-4.09-4-6.68-.68a131.4,131.4,0,0,0-32.86.06c-9.73-3.85-3.85-12.06-5.09-18.28,4.79-12.1,11.07-23.84,14.07-36.37,7.89-33,30.09-47.71,61.6-52.38,6.94-1,14.24-2.12,20.43-5.13,9.52-4.61,24.4-.82,28.43-13,4-11.94,11-21.17,18.23-30.55,8.4-10.81,6.81-19.09-5.28-25.11-20-10-40-20-60.33-29.34-10.65-4.88-21.35-4.86-32.68.68a303.29,303.29,0,0,1-43.9,17.26c-23.66,7.31-44.27,17.66-53.95,42.43-1,2.53-2.86,4.68-6.73,4.46a24.75,24.75,0,0,1,1.14-14.22c6.38-16.66,1.71-29.45-12.4-40.15a332.89,332.89,0,0,1-30.88-27c-11.69-11.42-22.35-9.27-32.84,1-25.8,25.28-53.28,49-76.12,77.07-10.56,13-24.25,24-30.48,40.06-17.67,45.68-33.07,92.13-47.65,138.9-14,44.8-25.51,89.1-2.54,134.62,4.07,8.07,1.5,17.48-.82,29.44-21.91-30.84-41.41-59.15-61.92-86.7-7.8-10.47-7.94-19.75-3.46-31.45,30.9-80.79,60.34-162.15,92.36-242.49,9.82-24.62,10.13-44.21-9.62-62.68-3.92-3.66-6.46-8.37-13.07-8.66-31.08-1.34-59.21,9.18-85.91,22.92-15.5,8-18,26.66-24.69,41.29-15,32.52-26.51,66.59-43,98.51C1811.93,1659.32,1810.79,1656.81,1809.66,1654.31Z" transform="translate(-362.39 -249.88)"/><path class="cls-2" d="M2299.66,1737.32c12.6-.85,19.91,7.11,27,15.83,6.47,8,13.32,15.67,23.66,27.76,0-25.42.56-46.33-.24-67.18a51.3,51.3,0,0,1,6.65-28c26-47.32,58.57-90.55,85.92-137a14.73,14.73,0,0,1,7.36-6c33.95-11.41,67.8-23.2,103.84-26.67,10.74-1,13.24,2.6,14.46,13.37,3.62,32.14-18.42,54.49-29.25,80.86-10.3,25.1-24.72,48.55-38,72.38-6.45,11.6-3.17,13.66,9.08,15.88,19.47,3.53,28.79-3.22,37.39-20.66,20.92-42.46,44.69-83.5,66.82-125.37,5.87-11.11,14-14.55,26.23-15.19,28.9-1.51,57.67-5.58,86.58-7.26,21.49-1.24,23,1.23,22.83,23.09-.09,10.41-.05,20.82,0,31.23a8.81,8.81,0,0,0,1,2.76c1-.13,2.34.09,2.75-.43,12.35-15.66,22.5-30.86,48.66-23.23,22,6.41,46.4,4.33,69.46,9,9.13,1.84,13.2,5.92,12.78,15.46-.55,12.58-.22,25.2-.11,37.8.06,7.87-3.34,12.33-11.46,12.75a49.27,49.27,0,0,0-8.16.81c-44.14,9.76-43.9,9.81-50,55-2.32,17.29-4.38,34.91-9.62,51.41-3.76,11.86-1.47,18.41,6.88,26.72,12.43,12.39,18.71,29.29,27.7,44.2,3.11,5.16,4.33,15.88,10.87,13.52,7.17-2.6,1.1-11.1-.19-17.12-2.29-10.64-2.93-21.77-6.34-32-6.88-20.59-.18-35.93,12.9-52.26,33.87-42.29,66.39-85.59,109.69-119.15,12.57-9.74,26.09-10.32,39.83-4,17.61,8,32.21,20.64,45.8,34.12,7.3,7.25,11.23,15.33-2.72,21.46-7,3.06-9.76,11-13.61,17.49-12.82,21.54-26.7,42.47-38.71,64.44-14.37,26.31-19.84,53.63-2.6,81.33,31.79,51.09,54.11,106.89,79.84,161,4.58,9.63,9.8,19,14.72,28.45l3.79-1.36q-5.49-33.59-11-67.18c-2.43-15.06-4.09-30.29-7.28-45.19-6.28-29.41-24.7-52.23-44.31-73.37-10.11-10.9-9.65-21.33,1.11-24.87,32.67-10.78,29.27-38.89,34.51-63.24,8.69-40.42,17.24-80.86,26.1-121.24,2.28-10.38,17.72-16.41,29-10.91a186.55,186.55,0,0,1,43.43,29.09c11,10,7.93,25.45,10.17,38.42,9.31,53.87,14.28,108.34,21,162.55,5.64,45.73,24.8,89,46,130.43,13.53,26.42,24.61,53.49,25.46,83.78.11,4-.19,9.83,5.28,10.62,6.18.9,5.72-5,6.9-9,5.4-18.27,10.54-36.64,16.47-54.74,4.41-13.47,1.77-25.22-5.33-37q-31.65-52.63-62.62-105.67c-12.67-21.55-10.58-25.35,13.59-25.84,18-.36,17.95-.35,10.15-17.33-14.35-31.23-28.31-62.63-39.4-95.2-7-20.7-3.94-25.64,16.83-31,9.93-2.56,19.2-7.55,29-10.87,13.19-4.48,24.7-2.09,33.64,9.42,18.8,24.2,39,47.3,57.85,71.37,18.57,23.73,25,54.16,35.41,82.17,17.89,47.92,36.75,96,46.82,145.9,6.17,30.54,25,54.75,30.77,85.08,8,41.63,17.27,83.06,25.17,124.76,4.48,23.61,5.77,24.39,29,26.52,8.07.74,16.07,2.65,24,4.52,4.47,1.06,8.44,4,7.64,9.14-.84,5.42-6,3.92-9.42,3.66a645.45,645.45,0,0,1-79.28-10.68c-36-7.3-68.74-21.68-100.77-40a224.78,224.78,0,0,0-70-25.53,78,78,0,0,0-49.43,6.69c-32,15.88-64.69,17.87-99.68,10.2-28.05-6.16-56.28.87-83.46,9.48-38.23,12.11-75.78,27.41-115.95,31.31-32.07,3.11-64.43,2-96.74-.16-47.79-3.12-94-20.1-142.71-15.09-37.33,3.83-74.56,8.24-111.54,14.56q-60.42,10.32-121.49,15.12c-35.37,2.72-70.49,7.78-105.89,10.56-32,2.51-63.95,6.69-95.88,10.47-40,4.74-77.4,16.81-113.69,32.94-28.72,12.76-56.4,28.14-87.42,34.83-23.45,5.06-47,9.27-71.36,4.77a131.7,131.7,0,0,0-31-1.71c-32.86,1.82-65-8.56-97.91-5.33-3.3.33-8.61,1.79-9-4-.37-6,5.23-3.81,8.4-5.06,15.37-6,30.79-5.89,46.44-1.1,6.32,1.93,14.42,4.11,18.83-.48,4.56-4.76-1.31-11.17-4.08-16.14-16.21-29-30.06-59.25-44.8-89-4-8.13-10.62-15.14-16.69-22.08-20.6-23.56-24-54.2-34.16-82.05-5.37-14.78-9.24-30.11-14.1-45.08-2.55-7.84-7.08-11.58-16.69-11.95-82-3.12-163.18-14.46-244.52-24.85-44.67-5.7-88.9-18.09-136.36-14.39,12.94,24.38,29.07,45.69,40.07,69.87,1.94,4.26,6.27,3,10.09,1.24,6.9-3.14,14-5.9,21-8.88,6.19-2.65,14.13-5.77,17.55,1.21,3.91,8-5.33,10.86-10.58,13.49-18,9-36.38,17-54.51,25.69A1272,1272,0,0,0,1327,2168.27c-7.51,4.58-15.33,5.17-23.61,5.25-35.58.31-71.15-2.63-106.77-.27-13.46.89-25.54,4.48-36.8,11.71-52.11,33.45-99.94,72.31-145.19,114.46-2.39,2.23-4.53,5.52-7.36,6.32-6.21,1.76-12.79,10.7-18.8,3.09-5-6.35,1.38-12.5,6.56-16.4,7.66-5.77,4.3-10.39.36-16.36-19.43-29.38-44.67-53.79-67.27-80.46-24-28.3-54.92-37.41-88.94-39.81-35.28-2.49-70.36-10.93-106-5.17-13.69,2.2-23.7-3.54-33.68-12.56-18.4-16.62-33.71-36-49.18-55C606.89,2030,560.76,1979.75,508.84,1935c-10.32-8.9-17.1-17.32-12.23-32.13,3-9.15,2.74-19.34,4.31-29,1.68-10.33,12.89-15.13,24.14-10.33,12.3,5.24,21.46,15,31.68,23.09,10.81,8.57,22.6,15.27,34.74,21.56,2.76,1.43,5.23,4.57,8.48,1.31,5-5.08-2.57-30.27-10-32.18-31.57-8.16-52.21-32.83-76.86-51.25-9.73-7.28-6.52-17.75,7.11-23.27,20.41-8.24,41.91-4,63-2.51,47.42,3.28,94.78,10.11,142.38,4.36,21.18-2.56,42.48-2.29,63.73-4.78,19.58-2.29,39-4.78,57.57-10.65,18-5.68,34.32-3.48,50.84,3.26,90,36.67,186.22,52.38,278.24,81.64,48,15.26,99.88,15.8,144.92,41.65,29.37,16.86,56,35.83,76.48,63.14,3.32,4.44,5.93,13.49,14.93,8.49,7.7-4.28,4.7-11.29,3.39-17.58-6.42-30.84-10.23-62.22-19.25-92.51-1.38-4.62.37-8.38,2.15-12.5,31.23-72.29,71.73-139.38,114.78-205.06,2.66-4.06,4.86-8.15,10.89-8.68,39.62-3.5,78.65-11.07,117.91-17.11,21.78-3.34,23.92-1.69,30.36,19.12.91,2.94,1.62,5.94,3.52,13,19.78-20.52,36.9-39.57,55.42-57.13,19.44-18.42,40.14-35.53,60.49-53,5.43-4.66,11.61-8.53,19.36-4.82s5.81,11.3,6,17.41c.76,28.87,1.24,57.77-7.63,85.8l-6.81,22.94c-15.7,9.86-31.14,20.19-47.21,29.43-11.64,6.69-16.27,15.76-17.5,29.12-2.1,22.72-6.68,45.19-9.91,67.81-5.64,39.4-11,78.84-16.64,118.24-.69,4.78-.41,8.66,3.72,11.6,28.34,20.19,55.08,42.4,84.27,68.53-2.17-12.36.66-17.21,10.27-16.6s7.28-5.65,4.83-10.91c-20-42.93-35.26-88-58.67-129.33-4.73-8.34-5.33-15.13-1.67-24.45,18.63-47.58,36.22-95.57,54.18-143.41,6.13-3.8,4.5-9.87,4.54-15.45,16.45-31.92,28-66,43-98.51,6.74-14.63,9.19-33.32,24.69-41.29,26.7-13.74,54.83-24.26,85.91-22.92,6.61.29,9.15,5,13.07,8.66,19.75,18.47,19.44,38.06,9.62,62.68-32,80.34-61.46,161.7-92.36,242.49-4.48,11.7-4.34,21,3.46,31.45,20.51,27.55,40,55.86,61.92,86.7,2.32-12,4.89-21.37.82-29.44-23-45.52-11.42-89.82,2.54-134.62,14.58-46.77,30-93.22,47.65-138.9,6.23-16.11,19.92-27.07,30.48-40.06,22.84-28.08,50.32-51.79,76.12-77.07,10.49-10.29,21.15-12.44,32.84-1a332.89,332.89,0,0,0,30.88,27c14.11,10.7,18.78,23.49,12.4,40.15a24.75,24.75,0,0,0-1.14,14.22c3.87.22,5.74-1.93,6.73-4.46,9.68-24.77,30.29-35.12,53.95-42.43a303.29,303.29,0,0,0,43.9-17.26c11.33-5.54,22-5.56,32.68-.68,20.32,9.33,40.31,19.37,60.33,29.34,12.09,6,13.68,14.3,5.28,25.11-7.28,9.38-14.27,18.61-18.23,30.55-4,12.16-18.91,8.37-28.43,13-6.19,3-13.49,4.1-20.43,5.13-31.51,4.67-53.71,19.43-61.6,52.38-3,12.53-9.28,24.27-14.07,36.37-7.59,8.83-10.42,19.94-14.38,30.46-7.12,18.92-3.94,28.61,14.93,42.73-1.58-13-.38-25.48-5-35.25-6.15-13-.45-16.42,9.52-19.66a131.4,131.4,0,0,1,32.86-.06C2295,1739.06,2297.23,1739.09,2299.66,1737.32ZM1955,1518.4c-17.31,1.88-34.26,5-50.53,13.08,5.52,8.16,12.55,11.89,20,15,20.37-.62,36.22-14,55.82-17.61C1974.14,1516.08,1965.63,1514.26,1955,1518.4Zm898.79,82.29c-18.35,2-33.95,11.18-52.59,18.16,7.52,3.62,12.22,6.37,17.88,6.06,14.76,12.94,29.62.18,44.44.21,5.39,0,7.95-2,7.36-7.72-.76-7.27,3.78-16.15-2.23-21.43C2864.43,1592.26,2857.23,1594.13,2853.79,1600.69Zm-1790.31,412c3.13,7.48,8.89,14.22,6.5,23.24l-4.33,5.52c-3.66,4.64-7.08,9.49-11,13.88-5.52,6.14-5.24,10.33,3.2,12.93,16.16,5,19.65,15.06,12.14,29.9-1.19,2.34-4.27,5.44-1.07,8.46,47.59,2.64,95.12-3.07,142.38,3.31,7.41,1,5.94-4.27,6-8.46,7.36-11.05,8.56-24.32,12.88-36.46,1-2.85.89-6.51-2.79-8.52-6.45-3.51-38.61,5.16-41.94,12.07-5.24,10.91-13.63,16.49-24.71,11.88-7-2.92-20.72.09-20.12-8.45.62-8.7,12.8-2.25,19.67-3.8,2.38-.53,5.83,1.49,6.72-2.37,1-4.4-2-4.93-5.57-5.92-16.74-4.67-32.84-11-47.57-20.43-18.94-12.06-20.22-15.44-11.37-36.23,4.63-10.89,2-14.55-9.46-12.21l-16.9-4.13c-8.93.46-19.52-11.29-24.92-3.42-4.61,6.72,6.21,16.49,9.82,25.07A34.7,34.7,0,0,0,1063.48,2012.64Zm1056.14-421.13c-5.57,3-4.29,6.19.73,7,5.92.93,11.59,2.61,17.36,3.74,9.58,1.89,17.73,15.43,25,10.11,7-5.08,8-18.24,11.6-27.89,1.32-3.56,1.86-7.48,3.58-10.8,2.92-5.63.48-9.09-3.56-12.63-8.2-7.18-16.18-14.61-24.3-21.88-3.86-3.45-7.55-5.76-8.51,2.21C2131.67,1557,2125.29,1574.07,2119.62,1591.51Zm1036.67,99.38c1.18-2.73,1-5.15-1.63-7-1.41-20.21-1.39-20.17-20.46-12.41a89.28,89.28,0,0,1-9.21,2.67c-8.31.45-15.75-1.82-21.81-8.21-8.57,33.23-16.83,65.34-25.13,97.44-1.46,5.62-5.56,12.37,4.85,13.28,13.32,1.15,22.83,9.53,33.15,16.49,17.43,11.74,32.39,27.2,54.47,37-3.62-42.85-6.83-83.38-13.92-123.53Q3156.43,1698.77,3156.29,1690.89ZM940.69,2006.08c-7.88,4.36-10,7.22.74,11.5,23.77,9.54,47,20.38,70.54,30.53,24.07,10.38,24.11,10.3,41-12.44,4.86-3.78,4.28-7.4,1.27-12.62-7-12.18-13-24.94-19.44-37.47-2-3.85-3.57-7.66-8.71-8.78-25.8-5.64-51.54-11.57-77.31-17.39-.59-1.26-1.2-3.16-2.85-1.75-.66.57,0,2.71.07,4.13C955,1977.84,957.89,1993.16,940.69,2006.08Zm2032.12-322.64c-3.85-18.17,8.42-34.86,6.07-55.13-49.16,34.49-79.5,83-114.67,127-3.06,3.83-6.28,16.4,3.47,17.14,10.26.77,19.85,7.17,30.44,3.72,21.59,10.12,46,11.06,69.24,23.92-3.23-33,7.85-58.08,26-81.1,8.37-10.63,15.31-22.46,22.18-34.17,2.62-4.45,9.58-7.87,5.51-16.13-6.31,2.93-12,6-18,8.21C2993.32,1680.44,2984.41,1688.35,2972.81,1683.44Zm272,45c-1.21-1.41-2.59-2.31-3.78-.21-.26.45.89,1.7,1.4,2.58q21.08,44.29,42.17,88.58c4,8.29,9.25,13.24,19.66,14.51,12.12,1.48,21.72,6.92,29.19,19.78,17,29.17,37.52,56.25,56.61,84.17-3.27-19.53-5.58-38.91-14.75-56.37-13.7-71.51-49.1-131.32-99.44-183.37-1,10.59,7.45,20.81,1.84,31.59C3266.36,1740.19,3255.77,1730.23,3244.85,1728.43ZM2579,1700.19c13.41,5.5,26.85,11,40.24,16.52,24.35,10.1,24.34,10.13,31.22-16,1.37-5.23,2.38-10.57,4-15.7,9.12-28.15,4.63-65.58,47.86-70.7a3.58,3.58,0,0,0,2.42-2c1.87-5.77-2.74-4-5.4-4.46-3.27-4.8-8.21-7.19-13.55-8.27-5.94-1.19-13.21-1.32-13.73-8.76-.45-6.62,6.31-9.74,11.26-12.81,13-8.09,26.31-15.74,43.68-26.05-30.79,1-56.17,6.23-81.75,3.89-11.1-1-16.56,3.54-21,13.23-20,43.47-41.46,86.27-65.29,127.8-6.89,12-7.3,22.28,3.48,31.85,11.22,28.35,22.37,56.72,33.68,85,19,47.61,40.5,94.42,51.32,144.81,5.48,25.56,7,51.9,7.69,78.09.38,14.14,12.15,10.9,19.18,12,8.75,1.43,5.61-7.4,5.81-12.06.57-12.56.64-25,3.16-37.53,1.44-7.13,2.34-14.75-.87-22.45-36.79-88-70.78-177.24-112-263.39C2570.77,1707.17,2572.65,1702.2,2579,1700.19Zm134.56,65.86c-.83-7.83-4.29-16.51,6.62-20.55,16.86.52,33.72,1.6,49.51,8,9.3,3.77,12.64.59,14.48-8.32,5.7-27.57,11.77-55.05,17.91-82.52,5.56-24.91,5.69-24.9-16.33-36.5-.87-.46-2.08-.28-3.13-.39-11.19-6.74-7.56-11.06,2.26-14.69,20-7.39,39.89-14.94,63.5-23.79-22.78-7.47-42.77-4.46-61.71-8.67-4.08-.91-7.51,2-9.81,5-12.23,16-25.27,31.52-36,48.47-17.21,27.09-32.33,55.52-51.43,81.41-3.5,4.74-5.85,8.86-3.48,14.81,5.41,13.56,10.55,27.23,15.8,40.85,8.24,29.28,15.39,58.92,25,87.75,15.83,47.59,35.27,94,47.1,142.91,2.28,9.41.62,20.94,9.84,28.24,5-2,4.75-6.1,4.43-9.78-1.88-21.76-1-44.28-6.52-65.1C2764.58,1888.83,2738.08,1827.76,2713.59,1766.05Zm-686.95,546.42c2.72-.15,5.61.23,8.13-.55,5.08-1.57,12.69,1.95,15-3.51s-4.55-9.25-8.05-13c-33.74-36.56-62.76-77.45-99.09-111.48-19.08-17.87-28.15-39.55-34.56-63.25-5.39-19.89-10.6-40-13.78-60.29-3.83-24.53-17.46-38.88-40.34-46-8.8-2.76-17.45-6-26.12-9.19-3.58-1.31-7.7-3.91-10.54-.44-2.5,3.06,0,7.11,1.24,10.68,12.34,34.79,25,69.46,36.66,104.5,4.83,14.6,8.55,29.31,21.43,39.3,26.68,47.86,51.39,96.72,75.15,146.08,1.24,2.57,2.94,5.37,5.75,5.12C1980.67,2308.31,2003.44,2317.77,2026.64,2312.47Zm632.42-457.85c1.61,16.53,9.57,30.92,15.84,45.8,14.47,34.35,26.07,68.66,24.49,107.25-2.2,54-2.56,108-9.07,161.77-1.77,14.57.75,22.28,18.1,20.36,14.58-1.62,30-2.58,44.13.45,17.39,3.72,15.65-5.38,13.52-15.47-10.67-50.7-11.27-102.79-21.15-153.54-5.94-30.46-8.71-61.69-20.41-90.87-.4-3.79,0-7.94-1.34-11.32-15.93-38.47-27.51-78.63-37.11-118.72-11.14-46.58-50.18-50.51-85.2-69.23Zm-1148.37,63.46c12.19-45.58,23.57-91.4,36.9-136.64,7.65-26,7-57.56,40.17-69.42,18.07-6.45,10.49-12.79-.87-18.42-1.18-7.71.29-13.13,8.65-16.91,11.11-5,21.29-12.12,31.87-18.33-26.36,1.05-52,4.71-77.48,9.05-10.12,1.72-20.67.09-28,12.29-36.26,60.11-73.27,119.76-105.09,182.43-1.5,2.95-3.24,5.76-1.87,9.25-.5,2.09-1.8,4.35-1.37,6.23,7.37,32.85,15.65,65.52,18.11,99.28.43,5.83,4.09,8.24,10.07,8.24,36.66,0,72.48,8.19,108.81,11.55,3,.28,6.74,2,8.58-1.92,1.46-3.06-1.58-4.92-3.13-7q-22.87-30.64-45.87-61.21Q1510.41,1922.32,1510.69,1918.08ZM1755,1663.84c7.22-23.48,20.45-44.76,26.36-68.72-4.16-1.65-6,.23-8,2.09q-49.38,46.71-98.86,93.34c-3.86,3.63-4.66,8-5.77,13-13.92,62.4-28.43,124.67-42.28,187.08-4.26,19.17-13,39.32,5.88,56.29,8.58,21.35,24.23,38.63,34.17,59.21,2.08,4.29,6.6,4.88,11.17,5.57a805.14,805.14,0,0,0,84.74,8.23c5.52.23,11.51,1.67,17.5-1.49-5.92-8.81-13.36-14.32-20.35-20.3-19.54-16.72-39.11-33.4-58.49-50.3-5.72-5-12.88-10.48-10.19-19.1,3.31-10.61,3.33-21.52,5.3-32.21,10.67-57.8,16.49-116.37,28-174.08,2.74-13.73,8.74-21.4,18.51-28.42,10.26-7.36,20.82-14.29,32.76-22.44C1767,1668.32,1759.77,1669.12,1755,1663.84Zm1201.49,237.58c1,7.88,5.45,14.28,9.55,20.57,21.61,33.23,28.61,69.45,27.45,108.89-1.59,53.81,2.62,107.74-2.6,162.44,32.39-9,62.38-22,94.71-26.7,7.68-1.12,10.67-6.16,11.61-14.86,2.35-21.61-5.1-42.28-4.39-63.42.65-19.05-4.81-35.11-16.93-49.34-28.69-61.64-58.85-122.65-85.6-185.13-19.94-46.56-63.5-46.12-101.79-58.45C2908.61,1832.94,2936,1865,2956.51,1901.42Zm488.56,180.14c0-16.82-4.73-32.06-14.77-45.72-38.51-52.38-71-108.63-105-163.95-7.64-12.46-16.15-20.21-31.4-22.57-11.92-1.84-24-1.31-35.76-4.1-3.57-.84-8.18-3.51-10.72.12-3.09,4.43,1.68,8,3.87,11.48,17.84,28.07,35.86,56,53.83,84,5.46,17.88,16.87,32.93,23.85,50.06,3,7.41,7.71,14.23,6.12,23.23-7.47,42.29-14.26,84.71-22,126.94-1.56,8.46.37,11.13,8.26,14,17.81,6.56,37.2,9.53,53.09,20.62,20,13.95,42.65,21.9,65.38,29.29,8.92,2.9,20.21,9.77,28,4.27,8.1-5.73-1.18-16-2.5-24C3459.61,2150.5,3456.35,2115.21,3445.07,2081.56Zm-357.08-213c-.68,4.93,3,8,5.07,11.72q29.13,51.12,58.45,102.15c7.48,13,12.09,26.25,10.87,41.82-3.4,43.43-2.78,87.22-12.27,130.07-2.12,9.62.72,12.62,11.14,14,28.68,3.77,54.62-2,78.88-17.13,15.78,1.51,21.53-3.37,17.66-20.72-6.54-29.32-8.21-59.46-9.27-89.52-.3-8.27-1.06-16.76-5.13-23.86-30.95-54-52.79-112.6-84.49-166.2-1.88-3.17-2.29-6.74-6.37-8.91-17-9-31.12-22.16-46.27-33.84-23.23-17.9-39-16-61,6.77C3062.61,1830.32,3072.32,1851.78,3088,1868.58Zm-773-251.51c3.7-3.37,11.16.84,13.81-6.62-5.1-2-9.47-3.77-13.94-5.3-4.66-1.6-11-2.56-11.15-8.08-.15-5.18,6.16-7.16,10.21-9.74,11-7,22.15-13.77,33.33-20.49,6.2-3.73,8.12-6.78.24-11.21-17.9-10.06-34.36-21.85-56.26-6.33-11.13,7.88-25.81,11.63-39.45,14.89-15.83,3.79-25.27,13-32.42,26.89-23.84,46.14-51.42,90-81.33,132.47-3.64,5.17-5.88,10.55-4.33,16.9q10.38,42.57,20.85,85.12c-.24,6.36,2.68,11.23,6.42,16.25,30.38,40.79,54.32,85.47,78,130.29,2.86,5.42,6.33,8.61,12.76,8,14.38-1.46,28.78-2.76,45-4.3-9.6-17.87-18.27-34.13-27.06-50.33-7.51-13.84-16.79-27.1-14.86-44.07,4.13-36.09-7-67.66-28.2-96.32-10-13.56-10.48-27.2-2.95-42.62,12.65-25.91,24.75-52.18,35.28-79,8-20.41,18.17-36.2,42-39.57C2305.26,1623.23,2312,1622.66,2315,1617.07Zm146.89,557.29c1.85-12.28,2.5-24.55-.27-36.8.78-55.67-7.45-109.4-34.32-159.11a31.47,31.47,0,0,1-2.58-6c-22.86-77.42-64.11-144.91-112.52-208.56-5.71-7.51-11.91-12.84-22.06-9.06-21.22-1.88-22.33-1.1-21.63,18.28,1.4,38.74,3.16,77.46,4.44,116.2a21.53,21.53,0,0,0,4.14,12c31.41,46.72,56.17,97.17,82.33,146.84a54.33,54.33,0,0,1,4.87,13.68c11.44,50.64,16,102.2,21,153.69.74,7.62,2.29,9.86,10.59,9.43a445.34,445.34,0,0,0,51.95-5.72c11.61,2.61,17.45-.59,15.72-13.86C2462.15,2195.12,2462.35,2184.69,2461.86,2174.36Zm50.81-160.92,3.17,1.25c-.45-1.06-.89-2.12-1.33-3.18q-35.46-64.24-67.28-130.39c-3.08-6.42-6.71-12.45-5.58-20.06q3.48-23.44,6.62-47c4-29.79,13.85-59.17.37-89.55-8.1-18.24-1.42-27.44,18.63-30,6.43-.81,10.53-1.95,13.9-8.64,12.25-24.33,25.69-48,38.51-72.1,3.57-6.7,11.41-16.66,6.14-20.58-6.23-4.62-11.54,7.1-17.4,11.41-7.42,5.46-12,17.06-24.45,9.73-16.94-22.26-16.93-22.24,4.24-38.91q22-17.32,43.94-34.74c-24.11,2.19-46.6,7.68-69,13.49-3.63.94-6.36,3.51-8.44,7.18-25.58,45.07-56.59,86.66-84.08,130.52-4.58,7.31-5.79,14.83-6.32,23.2-1.63,25.8,4,51.18,3.64,76.84-.15,11.53,2.67,21.54,10.53,30,6.65,11.16,13.84,22,19.85,33.52,21.69,41.44,38.19,85.15,54.88,128.72,3.79,9.9,9.06,16.21,19.07,17.08C2486.7,2002.61,2499.35,2009,2512.67,2013.44Zm-229.5,222.81c9.59,2.86,18.08-3.72,27.33-3.26,11.07.56,9.54-3.61,5.89-11.44-20.69-44.38-37.89-90.18-54.42-136.24-12.84-35.77-21.17-74.13-39.75-106.62-22.63-39.6-44.07-80.14-69.25-118.43-10.6-16.12-19.41-21.71-38.4-13.84-21,8.7-21.67,6.91-16.22,28.73.52,2.09.08,4.42.62,6.5,6.81,26.62,11.22,53.88,21.15,79.67,5.53,31.35,9.27,62.24,29.12,90.13,35.18,49.45,57.6,106.11,82.5,161.23,12.42,27.49,12.78,27.33,41.65,24.42C2276.65,2236.77,2279.91,2236.53,2283.17,2236.25ZM2467,1717c.08-.84.17-1.68.25-2.53l-1.57.13c.57.72,1.14,1.44,1.7,2.17,3.09,9.26,6.45,18.44,9.23,27.79,19.06,64.16,35.54,129.22,57.81,192.24,15.81,44.75,20.31,89.88,21.58,136.24,1.09,39.86,3.11,79.7,3.55,119.55.15,13.48,5.1,15.68,16.76,13.18,14.84-3.18,29.9-5.26,44.87-7.81,24-1.47,27.06-3.78,23.77-24.78-5.76-36.79-4.88-74-8-110.89-2.53-30.36.71-62.65-8.68-90.71-27.25-81.46-59.62-161.22-89.8-241.71-2.08-5.54-4.08-8.73-11-9.47-17.92-2-35.74-4.45-53.83-3.87C2471.33,1714.92,2469,1713.63,2467,1717Zm-490.86,243c-5.24,36.91-2.2,74-2.36,111.05,0,3.67,4.15,7.41,6.52,11q58.05,88.38,116.13,176.73c6.26,9.52,8,25.89,17.51,28.08,8.87,2.05,20.48-7.76,30.87-12.39.41-.19.57-.91.85-1.38,17.49-2.83,18.64-11.57,12.35-26.85-28-68.1-42.18-140.91-71.42-208.82-13.4-31.15-22.28-64.47-34.54-96.34-16.53-42.94-16.44-42.7-62.49-34.19-6.6,1.22-8.11,3.63-10.08,9.4C1974.51,1930.74,1979.51,1945.63,1976.11,1960Zm-.61-154.48c-6.32,15.58-11.29,30.84-5.89,48.38,12.42,40.29,11.93,40.44,54.89,32.87,21.9-3.87,23.45-3,31.32,17.67q17.13,45,34.16,89.94c2.14,5.68,3,11.82,11.86,9.76,9.68-2.25,5.13-9,5.24-14.34.05-2.15-.63-4.31-1-6.46a404.18,404.18,0,0,0-49.68-140.64c-9.29-16.09-8.29-31.6-3.08-48.33q23-73.81,45-147.94c2.64-8.87,7.28-12.59,16.24-12.66,12.42-.09,24.8-1,37-7-12.5-16-31.66-12.94-47.23-18.79-3-13.39,6-23.7,9.19-35.49,2.65-9.66,9-18.61,9.09-26.28-27.78,27.17-56.41,53.11-85,79.16a13.83,13.83,0,0,0-3.4,5.5C2013.68,1688.73,1992,1746.25,1975.5,1805.5Zm767.25-40.45c-6-1.68-11.75-2.85-9,6.76,1,3.64,3,7,4.48,10.54,24.07,57.1,52.05,112.67,61.45,175.13,9.12,60.6,14.14,121.43,16.53,182.59.66,16.9,2.53,33.76,4,50.63.54,6.2,1.63,10.91,10.12,11.9,26.65,3.12,53.29,4.94,80.12,4.17,18.67-.53,19.07-1.16,14.83-20.27a91.67,91.67,0,0,1-1.74-19.52c-.15-40.52,0-81.05-.14-121.57,0-6.89,1.8-14.54-5.54-19.45,1.38-7.07-2.75-12.63-5.53-18.32-33.15-68-67.07-135.6-99.41-204-7.53-15.93-18.22-24.58-34.15-28.84C2766.75,1771.63,2754.76,1768.32,2742.75,1765.05Zm-911,202.19c1.84,15.76,9.51,24.83,26,28.7,13.55,3.18,28.18,8.57,36.29,20.84,7.08,10.7,15.81,12.08,26.58,11.07,9.25-.87,18.5-1.85,27.74-2.8,3.93-.41,9-1.24,9-5.54,0-18.65,7.37-37.4-3.58-55.89-23.68-40-54.08-75.64-75.24-117.29-6.17-12.14-7.39-23.24-2.39-36q28-71.6,55.14-143.56c12.3-32.5,27.34-64,36.85-97.54,6.68-7.33,9.88-16.22,12.22-25.86-8.74-2.34-16.52.68-22.08,5-24,18.47-44.47,12-63.92-7.11-.43-.43-1.73,0-2.94.07-1.48,2.73-3.3,5.49-4.56,8.48q-57.55,136.8-115.14,273.58c-1.61,3.82-2.77,6.76-.56,10.59C1795.62,1876.41,1810.08,1923.46,1831.72,1967.24ZM1358.6,1971c-14.92-19.31-17.55-19.8-40.95-13-12.51,3.64-25.22,6.91-36.51,13.31-20.9,11.83-40.81,16.06-59.76-3.28-.15-.16-1,.31-2.8,1-1.7,21.1-9.84,41.13-17.93,61.07-4.93,12.18-4.15,18.14,11,16,6.44-.92,13.2.51,19.68-.26,14.39-1.72,15.41,5.58,12.07,16.49q-7.38,24.09-14.67,48.19c-5.31,17.46,1.34,25.87,19.26,27,26.09,1.6,52.1,4.42,78.15,6.71,2.07.23,4.61,1.37,6.13.56,34.76-18.27,69.32-36.92,104.14-55.07,8.42-4.39,3.67-9.24,1.12-13.27-12.55-19.84-24.74-40-38.65-58.86C1386.75,2001.07,1376,1983.06,1358.6,1971Zm-581.42-73.6c7.34,12.11,13.19,25.85,25,34.08,30,21,58.32,44.08,86.08,67.9,11,9.47,23.67,9.95,36.12,3.06,14.35-8,19.67-19.08,10.7-34.72-3.76-6.54-5.93-14-9.72-20.52-5-8.57-3.74-15.23,3.68-21.6,13.68-11.74,27.33-23.54,40.53-35.81,11.42-10.6,12.17-16.62,5.88-32.5-16.38,13.94-28.88,31.08-41.38,48.33-4.14,5.71-7.68,12.6-18,11.32-31.74-4-38.43-13.06-29.75-43.32,6.64-23.19-4.57-54.57-24-67.91-3-2.07-5.93-3.14-9.11-2-31.3,11.07-64.14,10.82-96.61,14.1-43.17,4.36-86.07,3.46-129.22.39-30.43-2.17-60.65-8-91.34-6.15-3.05.18-7-1.14-8.44,2.93s2.33,5.75,4.93,7.41c12.82,8.2,25.76,16.22,38.65,24.3,5,7.69,12.52,11.08,21.25,13.31,31.57,8,64.73,7.31,95.85,17.15,13.6,4.31,23.9,3.43,35.56-6.16,14.8-12.17,20.49-9.89,33.71,5.08C764,1883.29,768.48,1892.31,777.18,1897.42Zm376.2,271.07c26.52-13.11,55.76-10.73,83.88-14.76l34.89,2c.07-1.55.13-3.1.19-4.64a139.27,139.27,0,0,1-34.85-3.69c-11.51-.44-22.33-1.11-20.19-17.75,1.13-8.73-6.11-9-12.28-9q-70.59-.18-141.2-.17c-24.24,0-48.17,4.27-72.78,1.43-24.87-2.87-50.74-4.22-75.27-.42-16.74,2.59-24.26-3.08-31.91-14.44-14-20.82-28.49-41.36-41.78-62.63-6.42-10.28-14.21-14.25-25.84-12.36-17.12,2.78-33.45-1.39-49.9-5.6-28.71-7.34-51.12-26.34-76.25-40.28-58.09-32.21-119.35-59.39-168.86-105.37-1.62-1.51-3.57-2.5-6.13-1-1.09,7.23-.47,14.79-3.53,22.1-3.21,7.68-1.21,14.34,6.13,20,49.21,37.89,88.16,86.18,131.17,130.35,13.91,24.25,35.38,42.43,51.86,64.64,9.51,12.84,21,18.89,38.94,16.58,43.14-5.56,85.9,4.08,128.49,9.35,20.86,2.59,45.38,6.83,59,24.53,28.3,36.75,63.46,67.81,87.23,108,17.16-8.53,28.84-22.55,42.36-34.19C1087.38,2214.69,1121,2192.41,1153.38,2168.49Zm-12-231.63c-3.52.85-7.21,1.28-10.51,2.66-3.47,1.45-6.43,4.1-9.87,5.65a8.36,8.36,0,0,1-6,.11c-2.46-1-1.95-3.56-1.18-5.68,1.79-4.87,27.29-20.93,31-18.41,10.84,7.44,24,5.78,35.59,10.53,20.84,8.53,39.62,20.15,58.26,32.39,5,3.26,9.35,8.56,17.42,4.69,18.52-8.86,37.12-17.66,57.22-22.73,7.48-1.89,7.5-5.6.76-9.24-11.48-6.2-22.7-13.11-35.45-16.4-43.11-11.15-86.16-22.6-129.5-32.86-48.21-11.42-95.25-27.29-143.9-37.15-12.57-2.54-15.2,1.57-13,11.48,4.69,20.65-6.81,32.83-21.07,44.08a83.62,83.62,0,0,0-11,9.79c-6.7,7.53-22.59,12.58-19.54,21.48,3.64,10.62,19.82,10.07,31,13.52,37.79,11.71,78,12.67,115.41,26.21,2.84,1,5.92,3.88,9.19,1.45C1112.55,1966.31,1129.4,1954.77,1141.43,1936.86Zm514.65-242.4c-27.29,13.8-52.14,26.48-77.12,38.9-4.2,2.09-4.57,5.35-5.3,9.24-9.19,48.63-21.05,96.64-33,144.66-4.85,19.47-15.68,40,5.4,58.41,10.53,9.21,20.42,20.7,26.48,33.16,13.07,26.88,37,26.43,60.7,28.25,11.5.88,9.92-3.56,5.43-11-12.28-20.5-23.86-41.42-36-62-2.14-3.62-2.86-6.82-1.9-10.79,4.74-19.53,9.29-39.11,14-58.64C1628.28,1808.88,1641.83,1753.17,1656.08,1694.46Zm624,303.75c-30.46.42-30.48.42-20.14,29.11,1.29,3.58,2.82,7.06,4.22,10.59,24.09,60.63,45.35,122.35,71.52,182.19,5.29,12.1,13.3,8.62,21.34,8.41,9.7-.26,7.38-9,7.17-13.73-.71-15.24-3.59-30.36-4.59-45.59-3.59-54.67-11.27-107.87-41.87-155.59-7.15-11.14-13-17.41-26.16-15.47C2287.77,1998.68,2283.86,1998.21,2280,1998.21Zm-347.27,48.11c-26.61,0-26.61,0-19.63,25.24,1.3,4.72,2.49,9.47,4,14.11,7.69,23.07,8.81,49.33,25.64,68.11,42.35,47.28,85.25,94.07,125.72,143,7.94,9.59,15.49,5.52,23.07,1.34,10.58-5.84,1.07-11.14-1.68-15.57-39.74-64-85.35-124.2-124.25-188.8-4.76-7.91-10.23-15.14-10.35-25.29C1955.06,2046.27,1954.67,2046.28,1932.76,2046.32ZM2500.38,2216c11.31-1.67,22.59-3.56,33.93-4.94,6.29-.77,6.31-4.48,5.77-9.3-5.21-46.74-5.92-93.72-7.22-140.66-.17-6.31-.83-11.62-7.24-15.15-9.53-5.24-18.37-11.8-28-16.78-7.59-3.91-17.34-10.79-24-6.56-6.22,3.93,1.56,13.62,2.54,20.87.14,1.08.2,2.18.25,3.27,2.58,51.79,9.18,103.38,8.46,155.32C2484.65,2214.45,2489.41,2217.63,2500.38,2216Zm-275,26.94c-2.47-5.47-4.24-9.43-6-13.37-31-67.69-59.66-136.52-102.5-198.1-3.13-4.5-3.26-11-11-7.45-8.29,3.81-2.31,9-.78,13.4,15.19,43.44,30.87,86.71,45.7,130.27,9.44,27.71,17.79,55.79,26.37,83.78,1.48,4.84,3.72,9.19,8.79,6.53C2198.45,2251.42,2214.36,2253,2225.38,2242.91Zm-54.32-603.85c-18.89,6.68-32.89,12.51-48.27,13.2a10.72,10.72,0,0,0-10.51,8.78c-12,51.3-27.61,101.58-42.71,152-3.38,11.3,3.94,19.07,9.43,26.54,4.89,6.64,10.51-1.82,15.76-3.11,9.92-2.44,19.19-7.51,29.08-10.11,9.36-2.47,10.38-7.39,8.29-15.67-4.1-16.27-6.3-33.12-11.45-49-7.22-22.32-.91-40.55,11.58-58.93C2145.34,1683.47,2156.61,1663,2171.06,1639.06Zm705.21,189.71c.19,13,5.69,24.06,8.27,35.72,9.52,43,19.05,86.06,41.05,125.06,5.63,10,33,18.21,42.37,11.69,1.2-.83,2.55-2.56,2.53-3.85-.21-10.7,4-21.81-2.62-32-26.42-40.69-46.85-85.12-76.78-123.63C2887.25,1836.85,2884.68,1830.48,2876.27,1828.77Zm-1868.2,277c6.93,1.55,11.22-2.76,12.35-8.07,1.49-7,9.74-13.1,4.53-20.93-5.7-8.57-43-18.66-52.65-14.23-10.86,5-21.23,11-31.79,16.62-5.31,2.81-10.3,3.24-14.93-1.43-4.15-4.2-3.66-8.58-1.26-13.47,3.11-6.33,5.52-13,8.83-19.25,3.4-6.4,2.16-10.18-4.89-12.25a64.27,64.27,0,0,1-12.18-4.6c-11.3-6-15.49-3.12-15.16,9.87s4.73,28.28-13,34.91c-.91.34-1.61,2.56-1.59,3.89.14,10.34,21,29.14,31.93,29.26C948.18,2106.45,978.12,2099,1008.07,2105.8Zm1966.73,21.86c1.87-32.82-1.23-65.47-3.4-98.16-.29-4.32.5-9.53-6-9.38-9.1.22-18.41-2.25-27.23,1.66-.51.23-.07,3,.21,4.52,5.57,30.7,6.07,61.72,6.26,92.79.14,24.6.7,49.19,1.13,73.78.08,4.15-1.19,8.61,5.45,9.84,11.09,2.06,23.36-6.45,23.53-17.68C2975,2165.91,2974.8,2146.78,2974.8,2127.66ZM721.34,1950.11c-8.57,24.57,2.88,35.79,20.5,43.62a25.7,25.7,0,0,1,7,4.25c13.66,12.58,23.35-.84,33-6.18,10.06-5.54-2.72-11.33-2.88-17.68-.14-5.77-3.67-11.38-4.35-17.22-2.86-24.61-8.87-47.66-28.43-64.91-3.73-3.29-5.44-10.72-12.7-6.43-5.5,3.24-12.17,5.7-12.15,13.92C721.36,1917.45,721.34,1935.42,721.34,1950.11Zm165.42-142.42-6,2.48c27.54,21,21.16,46.91,14.69,72.67-1.51,6-7.66,12.53,3.09,15.46,8.51,2.31,17.07,12.33,26,.24,13.25-18,26-36.37,42.85-51.35,4.21-3.76,4.55-6.64-2-9.11C939.05,1828.25,913,1817.87,886.76,1807.69Zm245.12,203.68c28.55,1.3,46.43-19.08,67.87-31.86,2.74-1.64,4.29-5.18.67-8.06-12.37-9.8-25.58-18.33-40.19-24.34-3.8-1.56-7.7,1.66-9.82,4.65-10.3,14.53-20.51,29.08-28.28,45.29C1116.18,2009.46,1119.07,2013.69,1131.88,2011.37Zm-324-54.24c-9.82,18.88-9.82,18.9,8.59,24.19,2.71.77,6.43,1.85,5.72,4.68-5.16,20.78,6.82,29.44,23.73,35.24,1.54.52,2,3.73,3.32,5.44,7.9,10.44,16.39,20.47,23.69,31.31,4.76,7.05,8.85,5,13,.6,4.75-5.07,2.16-33.82-3.16-38.32C858.23,1999.48,833.6,1978.77,807.93,1957.13Zm1661.25-155.71c-9.1,36.7-16,69.88,8.36,100.6,5.33,6.71,8.69,15,12.62,22.78,6.89,13.57,13.4,27.33,20.36,40.86,1.41,2.73,3.92,6.34,7.64,4.45,3.48-1.76,2.23-5.55,1.08-8.62-2.76-7.4-6-14.65-8.32-22.19C2497.28,1894.67,2483.85,1850,2469.18,1801.42Zm671.2,285.77c.86-18.83-10.87-29.55-26.93-28.22-5.72.47-5.79,3.17-5.13,7.55,4.32,29.12,7.87,58.31,6.95,87.84-.18,5.77,1.6,9.33,8.3,9.18,5.64-.12,7.21-2.85,7.85-8C3134.32,2131.77,3137.61,2108.08,3140.38,2087.19Zm-368.85-18.5c5,41,13.76,81.56,16.57,122.85.46,6.83,3.92,6.74,8.37,6.4,5.43-.41,5.74-4.23,4.53-8.26-2.23-7.39-2.93-14.89-3.42-22.58q-3.47-54.64-7.87-109.23c-.29-3.59,2.79-12.35-5.44-10.23-5.81,1.5-14.27,3.8-14.32,13C2769.94,2063.34,2771,2066,2771.53,2068.69Zm337.89-118.52-4.41,1.91c3.31,27,5.94,54,10.23,80.84,2,12.53,15.25,11,23.85,12.25,8,1.12,4.61-8.08,5.28-12.71C3149.43,1997.38,3118.9,1978.64,3109.42,1950.17ZM2670.65,2193.5c3.1-39.37,6.15-78.32,9.24-117.26.83-10.39-7-11.29-14-12.06-10.75-1.21-7.35,7.45-7.13,12.46,1.63,37.13,3.69,74.24,5.64,111.36C2664.56,2190.16,2664.91,2192.32,2670.65,2193.5ZM2667,1709.22c23.15-24.81,39.89-52.16,58.54-83.12-18.2,6.58-37.92,7.3-44.16,20.91C2672.74,1666,2671.48,1688.32,2667,1709.22ZM666.41,1919.38c0-2.71.48-5.53-.09-8.13-1.49-6.85,5.74-16.85-4.11-20.2-10.1-3.43-17.08,4.1-22.29,12.36-2,3.21-4,6.47-6.29,9.48-7.7,10.08-7.4,16.46,5.63,23C666.62,1949.59,666.2,1950.42,666.41,1919.38ZM3287,2095.53c-2.4,2.91-13-5.84-13.13,5.29-.21,12.91,2.28,25.84,3.37,38.79.59,7,5.53,6.58,10.5,7.11,6.27.68,8.49-1.7,9.17-7.93,1.06-9.59,1.83-19.61,5.29-28.44C3308,2095.56,3301.81,2093.14,3287,2095.53Zm-2170.43-73.06c16.17,10.5,31.17,21.88,50.53,25,6.17,1,9.67.32,11.15-5.26,1.14-4.26,7.18-8.06,2.08-13.22-6.94-7-14.24-15.18-25.07-12.45C1142.65,2019.74,1129.9,2020.44,1116.57,2022.47Zm1917.36-372.6c-12.71-9.42-20.39-27-33.93-24-14.24,3.14-8.78,22.23-13,33.95-.19.51-.47,1-.67,1.5-2.87,7.17,1.25,8,6.28,6C3005.67,1662.22,3018.53,1656.45,3033.93,1649.87Zm-480.51-111.59c-21.84,17.25-42.71,33.61-63.42,50.17-3.89,3.11-7.54,6.58-2.15,12,5.18,5.26,7.43.18,10.49-2.26,15.83-12.55,31.72-25,47.38-37.78C2552.08,1555.26,2557.13,1549.14,2553.42,1538.28ZM2350,1599.34c2.53,0,4.81-.39,6.9.06,15.34,3.36,18-10.73,25.16-18.39,3.71-4,.53-6.2-2.9-8.87-10.16-7.94-18.17-3.46-26.24,3.39-2.46,2.1-5.7,3.28-8.17,5.37-5.5,4.64-17.78,5.85-15.29,14.13C2331.86,1603,2343.21,1597.32,2350,1599.34Zm-750.56,87.39c13.87,8.67,50.25.46,57.38-11,3-4.89-.15-9.68-1.74-14-2.12-5.73-7-1.63-9.47-.36C1630.74,1669.09,1616.22,1677.43,1599.44,1686.73ZM2693,1587.52c35.79,19.45,37.54,18.71,38.43-13.73a27.22,27.22,0,0,0,.11-3.25c-.47-5.36-3-6.56-7.49-3.57C2714.21,1573.49,2704.37,1580,2693,1587.52Zm-897.68,1.12-25.66,67.09c8.35-2.35,18.62,4.46,20.2-5.21C1793.16,1630.27,1802.63,1610.73,1795.31,1588.64Zm-1090,325.63c-10.55,10.87-20.76,21.3-21.65,36.93-.67,11.54,8.78,14.34,15.7,15.24,9.31,1.22,5.45-8.34,5.71-13.09C705.73,1940.35,705.27,1927.3,705.27,1914.27Zm2409.35-289c0,6.76,0,11,0,15.25-.16,26.3,2.86,27.72,27.57,15.81,7.57-3.64,8.62-5.49,1.57-10.33C3134.86,1640,3126.17,1633.55,3114.62,1625.31ZM3317,2012.56c-9.39,17.86-11.53,37.87-17.84,56.59-1.28,3.79-.55,6.38,3.94,6.79,3.91.34,6-1.19,6.42-5.35C3311.63,2051.24,3319.77,2032.76,3317,2012.56Zm-88.84-306.87c6.66,3,12.83,6.21,19.32,8.56,5.81,2.1,11.68,9.83,17.31,5.34,6.14-4.9-1.9-11.74-2-17.9-.19-9.86-5.34-8.74-11.74-5.88C3243.75,1699.06,3236.37,1702.16,3228.17,1705.69Zm-2195.4,394.78c.59,6.55,6.09,6.43,9.78,6,8.82-1,9.73-9,11.28-15.64,1.32-5.62-3.29-6-7.2-5.93C1036.31,2085,1035.83,2093.93,1032.77,2100.47Zm-243.12-85c9.54,1.15,16.62.83,17.13-10.29.18-3.93-.38-7.59-4.29-5.78-7.91,3.67-19.57,3.43-22.14,13.35C779.14,2017.45,787.28,2014.68,789.65,2015.49ZM614.2,1890.68c1.9,3.76,0,12.37,6.61,11.55,4-.49,9.15-8.32,9.87-13.4.79-5.68-7-5.42-11.19-6.44C613.61,1880.94,614.7,1886.33,614.2,1890.68Zm577.36,107.58c-6,4.84-14.24,3.64-14.9,11.74-.2,2.39,6.27,7.88,7.11,7.4C1190,2013.87,1192,2007.76,1191.56,1998.26Zm-508.65-84c4.76-5.36,11.68-7.57,9-15-.76-2.13-4.32-3.36-7.1-1.65C678.85,1901.32,680,1906.49,682.91,1914.28Zm259.66,147.18c8.48-5,17.23-4.7,18.42-13,.49-3.41-6.29-5.25-8.91-4.72C944.77,2045.25,943.88,2051.84,942.57,2061.46Zm2161.2-118.84c-.28.37-.81.76-.78,1.1a15.16,15.16,0,0,0,.65,2.53c.31-.35.9-.73.87-1A13.37,13.37,0,0,0,3103.77,1942.62Z" transform="translate(-362.39 -249.88)"/><path class="cls-3" d="M2260.12,1736.7c-10,3.24-15.67,6.63-9.52,19.66,4.6,9.77,3.4,22.29,5,35.25-18.87-14.12-22-23.81-14.93-42.73,4-10.52,6.79-21.63,14.38-30.46C2256.27,1724.64,2250.39,1732.85,2260.12,1736.7Z" transform="translate(-362.39 -249.88)"/><path class="cls-3" d="M1813.06,1661.83c0,5.58,1.59,11.65-4.54,15.45l-5.67,0,6.81-22.94C1810.79,1656.81,1811.93,1659.32,1813.06,1661.83Z" transform="translate(-362.39 -249.88)"/><path class="cls-3" d="M2299.66,1737.32c-2.43,1.77-4.68,1.74-6.68-.68C2295.57,1733.29,2297.71,1734.35,2299.66,1737.32Z" transform="translate(-362.39 -249.88)"/><path class="cls-4" d="M648.87,2052.18c-43-44.17-82-92.46-131.17-130.35-7.34-5.65-9.34-12.31-6.13-20,3.06-7.31,2.44-14.87,3.53-22.1,2.56-1.47,4.51-.48,6.13,1,49.51,46,110.77,73.16,168.86,105.37,25.13,13.94,47.54,32.94,76.25,40.28,16.45,4.21,32.78,8.38,49.9,5.6,11.63-1.89,19.42,2.08,25.84,12.36,13.29,21.27,27.76,41.81,41.78,62.63,7.65,11.36,15.17,17,31.91,14.44,24.53-3.8,50.4-2.45,75.27.42,24.61,2.84,48.54-1.4,72.78-1.43q70.61-.08,141.2.17c6.17,0,13.41.31,12.28,9-2.14,16.64,8.68,17.31,20.19,17.75l-.23,6.33c-28.12,4-57.36,1.65-83.88,14.76-3.8-.2-7.77-1.23-11.37-.46q-48.57,10.39-97,21.37c-31.44,7.19-58.23,16-88.74-14.3-51-50.6-119.51-64.22-190.31-63.55-22.88.22-42.69-5-61.51-20.24C687,2077.18,671,2060,648.87,2052.18Z" transform="translate(-362.39 -249.88)"/><path class="cls-5" d="M571.22,1846.69c-12.89-8.08-25.83-16.1-38.65-24.3-2.6-1.66-6.34-3.31-4.93-7.41s5.39-2.75,8.44-2.93c30.69-1.84,60.91,4,91.34,6.15,43.15,3.07,86.05,4,129.22-.39,32.47-3.28,65.31-3,96.61-14.1,3.18-1.12,6.1,0,9.11,2,19.39,13.34,30.6,44.72,24,67.91-8.68,30.26-2,39.36,29.75,43.32,10.28,1.28,13.82-5.61,18-11.32,12.5-17.25,25-34.39,41.38-48.33,6.29,15.88,5.54,21.9-5.88,32.5-13.2,12.27-26.85,24.07-40.53,35.81-7.42,6.37-8.66,13-3.68,21.6,3.79,6.52,6,14,9.72,20.52,9,15.64,3.65,26.77-10.7,34.72-12.45,6.89-25.09,6.41-36.12-3.06-27.76-23.82-56-46.91-86.08-67.9-11.77-8.23-17.62-22-25-34.08-.56-14-11.44-23-17-34.59-6.5-13.61-17.87-14.88-28.37-7.67-17.32,11.88-35.09,7.12-53,4.95C642.93,1855.77,607.08,1851.17,571.22,1846.69Z" transform="translate(-362.39 -249.88)"/><path class="cls-4" d="M1326.16,2144.19c-26.05-2.29-52.06-5.11-78.15-6.71-17.92-1.1-24.57-9.51-19.26-27q7.32-24.09,14.67-48.19c3.34-10.91,2.32-18.21-12.07-16.49-6.48.77-13.24-.66-19.68.26-15.17,2.15-16-3.81-11-16,8.09-19.94,16.23-40,17.93-61.07,1.84-.65,2.65-1.12,2.8-1,18.95,19.34,38.86,15.11,59.76,3.28,11.29-6.4,24-9.67,36.51-13.31,23.4-6.82,26-6.33,40.95,13,10.73,30.84,25.89,59.74,39.53,89.28,5,10.8,4.15,18.44-5.15,25.64s-19,14.55-27.74,22.58C1352.23,2120.43,1335.76,2128.57,1326.16,2144.19Z" transform="translate(-362.39 -249.88)"/><path class="cls-4" d="M1831.72,1967.24c-21.64-43.78-36.1-90.83-60.59-133.31-2.21-3.83-1.05-6.77.56-10.59q57.76-136.71,115.14-273.58c1.26-3,3.08-5.75,4.56-8.48,1.21,0,2.51-.5,2.94-.07,19.45,19.16,39.88,25.58,63.92,7.11,5.56-4.27,13.34-7.29,22.08-5-2.34,9.64-5.54,18.53-12.22,25.86-2,.51-4.93.34-5.89,1.63-22.84,30.81-50.48,58-66.24,94.13-16.1,37-35,72.65-52.35,109.09-4.85,10.22-12.67,21.69-9.65,32.17,8.1,28.14,11.6,57.26,20.15,85.25,9.45,30.9,18,62.06,27.48,94.78C1863,1981.37,1849.54,1968.33,1831.72,1967.24Z" transform="translate(-362.39 -249.88)"/><path class="cls-3" d="M2917.87,2026c7.34,4.91,5.52,12.56,5.54,19.45.12,40.52,0,81,.14,121.57a91.67,91.67,0,0,0,1.74,19.52c4.24,19.11,3.84,19.74-14.83,20.27-26.83.77-53.47-1.05-80.12-4.17-8.49-1-9.58-5.7-10.12-11.9-1.46-16.87-3.33-33.73-4-50.63-2.39-61.16-7.41-122-16.53-182.59-9.4-62.46-37.38-118-61.45-175.13-1.48-3.52-3.44-6.9-4.48-10.54-2.77-9.61,3-8.44,9-6.76,21.3,51.36,42.24,102.88,64.11,154,6.38,14.91,7.6,32.33,18.11,44.9,15.74,18.82,33.57,35.88,50.1,54.06,11.42,12.57,22,26.37,39.61,8.21C2915.24,2025.63,2916.79,2026,2917.87,2026Z" transform="translate(-362.39 -249.88)"/><path class="cls-3" d="M2447.77,2219.19a445.34,445.34,0,0,1-51.95,5.72c-8.3.43-9.85-1.81-10.59-9.43-5-51.49-9.53-103.05-21-153.69a54.33,54.33,0,0,0-4.87-13.68c-26.16-49.67-50.92-100.12-82.33-146.84a21.53,21.53,0,0,1-4.14-12c-1.28-38.74-3-77.46-4.44-116.2-.7-19.38.41-20.16,21.63-18.28-2.66,7.91-12.66,12-10.24,22.85,5.84,26.13,4.79,53,5.89,79.49,2.13,51.11,2,52.65,54,53.57,9.26.16,14.83,3.24,19.79,11.22,19,30.52,39.3,60.2,57.86,91,7.21,11.94,19.06,21.92,20,37C2441.12,2106.29,2444.36,2162.74,2447.77,2219.19Z" transform="translate(-362.39 -249.88)"/><path class="cls-5" d="M1141.43,1936.86c-12,17.91-28.88,29.45-45.2,41.57-3.27,2.43-6.35-.43-9.19-1.45-37.39-13.54-77.62-14.5-115.41-26.21-11.13-3.45-27.31-2.9-31-13.52-3-8.9,12.84-14,19.54-21.48a83.62,83.62,0,0,1,11-9.79c14.26-11.25,25.76-23.43,21.07-44.08-2.25-9.91.38-14,13-11.48,48.65,9.86,95.69,25.73,143.9,37.15,43.34,10.26,86.39,21.71,129.5,32.86,12.75,3.29,24,10.2,35.45,16.4,6.74,3.64,6.72,7.35-.76,9.24-20.1,5.07-38.7,13.87-57.22,22.73-8.07,3.87-12.45-1.43-17.42-4.69-18.64-12.24-37.42-23.86-58.26-32.39-11.62-4.75-24.75-3.09-35.59-10.53-3.67-2.52-29.17,13.54-31,18.41-.77,2.12-1.28,4.67,1.18,5.68a8.36,8.36,0,0,0,6-.11c3.44-1.55,6.4-4.2,9.87-5.65C1134.22,1938.14,1137.91,1937.71,1141.43,1936.86Z" transform="translate(-362.39 -249.88)"/><path class="cls-3" d="M1831.72,1967.24c17.82,1.09,31.24,14.13,49.89,19-9.44-32.72-18-63.88-27.48-94.78-8.55-28-12.05-57.11-20.15-85.25-3-10.48,4.8-22,9.65-32.17,17.31-36.44,36.25-72.14,52.35-109.09,15.76-36.15,43.4-63.32,66.24-94.13,1-1.29,3.88-1.12,5.89-1.63-9.51,33.56-24.55,65-36.85,97.54q-27.24,71.91-55.14,143.56c-5,12.76-3.78,23.86,2.39,36,21.16,41.65,51.56,77.29,75.24,117.29,11,18.49,3.6,37.24,3.58,55.89,0,4.3-5.08,5.13-9,5.54-9.24,1-18.49,1.93-27.74,2.8-10.77,1-19.5-.37-26.58-11.07-8.11-12.27-22.74-17.66-36.29-20.84C1841.23,1992.07,1833.56,1983,1831.72,1967.24Z" transform="translate(-362.39 -249.88)"/><path class="cls-3" d="M2104.41,1608c15.57,5.85,34.73,2.77,47.23,18.79-12.25,5.94-24.63,6.88-37,7-9,.07-13.6,3.79-16.24,12.66q-22,74.11-45,147.94c-5.21,16.73-6.21,32.24,3.08,48.33a404.18,404.18,0,0,1,49.68,140.64c.33,2.15,1,4.31,1,6.46-.11,5.3,4.44,12.09-5.24,14.34-8.85,2.06-9.72-4.08-11.86-9.76q-17-45-34.16-89.94c-7.87-20.68-9.42-21.54-31.32-17.67-43,7.57-42.47,7.42-54.89-32.87-5.4-17.54-.43-32.8,5.89-48.39,4.24-1,6-4.61,7.58-8,19.57-42.61,45-81.91,69.5-121.68C2067.53,1651.54,2083.25,1627.62,2104.41,1608Z" transform="translate(-362.39 -249.88)"/><path class="cls-4" d="M1976.11,1960c3.4-14.35-1.6-29.24,3.34-43.7,2-5.77,3.48-8.18,10.08-9.4,46-8.51,46-8.75,62.49,34.19,12.26,31.87,21.14,65.19,34.54,96.34,29.24,67.91,43.4,140.72,71.42,208.82,6.29,15.28,5.14,24-12.35,26.85-4.8-3.41-6.08-8.67-7.8-13.92-9.67-29.5-19.39-59-29.46-88.36-12.66-36.92-25.66-73.73-39.53-113.49-7.46,10.89-13.67,19-18.75,27.66s-9.37,10.52-16.92,2.16c-10.63-11.76-22-22.89-33.62-33.7-8.15-7.59-12.26-16.6-12.39-27.41a166.08,166.08,0,0,0-4.43-33.81C1980.34,1981.55,1985.6,1969,1976.11,1960Z" transform="translate(-362.39 -249.88)"/><path class="cls-6" d="M1656.08,1694.46c-14.25,58.71-27.8,114.42-41.3,170.15-4.72,19.53-9.27,39.11-14,58.64-1,4-.24,7.17,1.9,10.79,12.15,20.57,23.73,41.49,36,62,4.49,7.49,6.07,11.93-5.43,11-23.73-1.82-47.63-1.37-60.7-28.25-6.06-12.46-16-23.95-26.48-33.16-21.08-18.43-10.25-38.94-5.4-58.41,11.94-48,23.8-96,33-144.66.73-3.89,1.1-7.15,5.3-9.24C1603.94,1720.94,1628.79,1708.26,1656.08,1694.46Z" transform="translate(-362.39 -249.88)"/><path class="cls-5" d="M2473.69,1716.52c18.09-.58,35.91,1.92,53.83,3.87,6.88.74,8.88,3.93,11,9.47,30.18,80.49,62.55,160.25,89.8,241.71,9.39,28.06,6.15,60.35,8.68,90.71,3.08,36.93,2.2,74.1,8,110.89,3.29,21,.23,23.31-23.77,24.78a1542.48,1542.48,0,0,1-6-166.79c.1-6-.44-12.1.11-18.07,1.24-13.47-2.56-25.86-6.59-38.42-3.18-9.9-8-13.67-18.09-8.65-8.32,4.13-13.11,1.69-17.33-7.48C2536.72,1879.22,2505.65,1797.69,2473.69,1716.52Z" transform="translate(-362.39 -249.88)"/><path class="cls-3" d="M2473.69,1716.52c32,81.17,63,162.7,99.52,242,4.22,9.17,9,11.61,17.33,7.48,10.1-5,14.91-1.25,18.09,8.65,4,12.56,7.83,24.95,6.59,38.42-.55,6,0,12-.11,18.07a1542.48,1542.48,0,0,0,6,166.79c-15,2.55-30,4.63-44.87,7.81-11.66,2.5-16.61.3-16.76-13.18-.44-39.85-2.46-79.69-3.55-119.55-1.27-46.36-5.77-91.49-21.58-136.24-22.27-63-38.75-128.08-57.81-192.24-2.78-9.35-6.14-18.53-9.23-27.79l-.39.23C2469,1713.63,2471.33,1714.92,2473.69,1716.52Z" transform="translate(-362.39 -249.88)"/><path class="cls-5" d="M2120.12,1961.32c-9.93-25.79-14.34-53-21.15-79.67-.54-2.08-.1-4.41-.62-6.5-5.45-21.82-4.74-20,16.22-28.73,19-7.87,27.8-2.28,38.4,13.84,25.18,38.29,46.62,78.83,69.25,118.43,18.58,32.49,26.91,70.85,39.75,106.62,16.53,46.06,33.73,91.86,54.42,136.24,3.65,7.83,5.18,12-5.89,11.44-9.25-.46-17.74,6.12-27.33,3.26-4.5-12.82-9.07-25.6-13.47-38.45-23.24-67.86-40.81-137.74-72.48-202.61-7.64-15.66-8.34-16.12-21.67-4.53-16.16,14.06-17.58,13.67-30.41-3.17C2137.83,1977.89,2131.46,1967.16,2120.12,1961.32Z" transform="translate(-362.39 -249.88)"/><path class="cls-3" d="M2484,1614.43c12.42,7.33,17-4.27,24.45-9.73,5.86-4.31,11.17-16,17.4-11.41,5.27,3.92-2.57,13.88-6.14,20.58-12.82,24.05-26.26,47.77-38.51,72.1-3.37,6.69-7.47,7.83-13.9,8.64-20.05,2.51-26.73,11.71-18.63,30,13.48,30.38,3.62,59.76-.37,89.55q-3.15,23.51-6.62,47c-1.13,7.61,2.5,13.64,5.58,20.06q31.79,66.17,67.28,130.39c-.61.65-1.23,1.29-1.85,1.93-13.31-4.47-26-10.83-40.38-12.08-10-.87-15.28-7.18-19.07-17.08-16.69-43.57-33.19-87.28-54.88-128.72-6-11.49-13.2-22.36-19.85-33.52,4.59-.31,5.92-2.9,6.83-7.33,4-19.56,9.85-38.81,12.78-58.51,6.38-42.89,23.46-78.84,58.24-106.52C2467.62,1640.69,2478.61,1629.18,2484,1614.43Z" transform="translate(-362.39 -249.88)"/><path class="cls-4" d="M2447.77,2219.19c-3.41-56.45-6.65-112.9-10.34-169.33-1-15-12.83-25-20-37-18.56-30.75-38.9-60.43-57.86-91-5-8-10.53-11.06-19.79-11.22-51.93-.92-51.85-2.46-54-53.57-1.1-26.46-.05-53.36-5.89-79.49-2.42-10.81,7.58-14.94,10.24-22.85,10.15-3.78,16.35,1.55,22.06,9.06,48.41,63.65,89.66,131.14,112.52,208.56a31.47,31.47,0,0,0,2.58,6c26.87,49.71,35.1,103.44,34.32,159.11-5.81,12.31-6.38,24.58.27,36.8.49,10.33.29,20.76,1.63,31C2465.22,2218.6,2459.38,2221.8,2447.77,2219.19Z" transform="translate(-362.39 -249.88)"/><path class="cls-4" d="M2154.53,1825.57q-10.44-42.55-20.85-85.12c-1.55-6.35.69-11.73,4.33-16.9,29.91-42.44,57.49-86.33,81.33-132.47,7.15-13.84,16.59-23.1,32.42-26.89,13.64-3.26,28.32-7,39.45-14.89,21.9-15.52,38.36-3.73,56.26,6.33,7.88,4.43,6,7.48-.24,11.21-11.18,6.72-22.34,13.48-33.33,20.49-4.05,2.58-10.36,4.56-10.21,9.74.15,5.52,6.49,6.48,11.15,8.08,4.47,1.53,8.84,3.35,13.94,5.3-2.65,7.46-10.11,3.25-13.81,6.62-26.9-4.88-50,5.83-62.52,30.21-19.65,38.29-37.81,77.38-58.28,115.21C2182.39,1784.27,2172.67,1807.66,2154.53,1825.57Z" transform="translate(-362.39 -249.88)"/><path class="cls-3" d="M3240.13,2151.2c-24.26,15.09-50.2,20.9-78.88,17.13-10.42-1.37-13.26-4.37-11.14-14,9.49-42.85,8.87-86.64,12.27-130.07,1.22-15.57-3.39-28.83-10.87-41.82q-29.39-51-58.45-102.15c-2.11-3.69-5.75-6.79-5.07-11.72,12.84,1.66,25.73,5,38.51,4.58,19.71-.59,27.27,11.31,34.17,26.56,12.37,27.32,27.62,53.17,42.4,79.26,10.56,18.65,21,36.55,21.8,60.32.77,22.77-1.27,46,2.56,68.39C3229.93,2122.28,3222.26,2140.86,3240.13,2151.2Z" transform="translate(-362.39 -249.88)"/><path class="cls-3" d="M3445.07,2081.56c11.28,33.65,14.54,68.94,20.24,103.67,1.32,8,10.6,18.31,2.5,24-7.79,5.5-19.08-1.37-28-4.27-22.73-7.39-45.38-15.34-65.38-29.29-15.89-11.09-35.28-14.06-53.09-20.62-7.89-2.9-9.82-5.57-8.26-14,7.77-42.23,14.56-84.65,22-126.94,1.59-9-3.1-15.82-6.12-23.23-7-17.13-18.39-32.18-23.85-50.06,11.12-1.2,12.09,9.8,17.27,15.19,34.22,35.65,62.11,74.64,70.89,125.35,4.16,24.07,14,47.15,22.42,74.4,6.63-18.81,11.45-33.82,17.25-48.44C3436.46,2098.54,3435.52,2087.52,3445.07,2081.56Z" transform="translate(-362.39 -249.88)"/><path class="cls-3" d="M3075.91,2039c12.12,14.23,17.58,30.29,16.93,49.34-.71,21.14,6.74,41.81,4.39,63.42-.94,8.7-3.93,13.74-11.61,14.86-32.33,4.71-62.32,17.66-94.71,26.7,5.22-54.7,1-108.63,2.6-162.44,1.16-39.44-5.84-75.66-27.45-108.89-4.1-6.29-8.59-12.69-9.55-20.57,6-1.66,9.16,2.83,12.16,6.39q24.59,29.18,48.67,58.79c3.82,4.69,6.76,10.44,5.42,16.59-5.55,25.49,8.14,41.63,25.57,57.07C3063.56,2053.75,3062.92,2054.47,3075.91,2039Z" transform="translate(-362.39 -249.88)"/><path class="cls-3" d="M2154.53,1825.57c18.14-17.91,27.86-41.3,39.64-63.08,20.47-37.83,38.63-76.92,58.28-115.21,12.51-24.38,35.62-35.09,62.52-30.21-3,5.59-9.71,6.16-14,6.77-23.84,3.37-34,19.16-42,39.57-10.53,26.83-22.63,53.1-35.28,79-7.53,15.42-7.08,29.06,2.95,42.62,21.19,28.66,32.33,60.23,28.2,96.32-1.93,17,7.35,30.23,14.86,44.07,8.79,16.2,17.46,32.46,27.06,50.33-16.25,1.54-30.65,2.84-45,4.3-6.43.66-9.9-2.53-12.76-8-23.68-44.82-47.62-89.5-78-130.29C2157.21,1836.8,2154.29,1831.93,2154.53,1825.57Z" transform="translate(-362.39 -249.88)"/><path class="cls-3" d="M1755,1663.84c4.75,5.28,11.93,4.48,20.52,7.7-11.94,8.15-22.5,15.08-32.76,22.44-9.77,7-15.77,14.69-18.51,28.42-11.55,57.71-17.37,116.28-28,174.08-2,10.69-2,21.6-5.3,32.21-2.69,8.62,4.47,14.11,10.19,19.1,19.38,16.9,39,33.58,58.49,50.3,7,6,14.43,11.49,20.35,20.3-6,3.16-12,1.72-17.5,1.49a805.14,805.14,0,0,1-84.74-8.23c-4.57-.69-9.09-1.28-11.17-5.57-9.94-20.58-25.59-37.86-34.17-59.21,13.74-.17,20.28,12.92,33.7,19.14-5.3-12.54-4.92-23.44-4.22-34.16,3.64-56.43,8.07-112.79,10.42-169.32.5-12.24.91-26.9,11.59-36.48C1707.33,1705,1731.28,1684.54,1755,1663.84Z" transform="translate(-362.39 -249.88)"/><path class="cls-3" d="M1976.11,1960c9.49,9,4.23,21.57,6.62,32.23a166.08,166.08,0,0,1,4.43,33.81c.13,10.81,4.24,19.82,12.39,27.41,11.61,10.81,23,21.94,33.62,33.7,7.55,8.36,11.81,6.6,16.92-2.16s11.29-16.77,18.75-27.66c13.87,39.76,26.87,76.57,39.53,113.49,10.07,29.37,19.79,58.86,29.46,88.36,1.72,5.25,3,10.51,7.8,13.92-.28.47-.44,1.19-.85,1.38-10.39,4.63-22,14.44-30.87,12.39-9.48-2.19-11.25-18.56-17.51-28.08q-58.05-88.36-116.13-176.73c-2.37-3.6-6.53-7.34-6.52-11C1973.91,2034,1970.87,1996.89,1976.11,1960Z" transform="translate(-362.39 -249.88)"/><path class="cls-4" d="M1414.94,1871.38c-1.37-3.49.37-6.3,1.87-9.25,31.82-62.67,68.83-122.32,105.09-182.43,7.36-12.2,17.91-10.57,28-12.29,25.5-4.34,51.12-8,77.48-9.05-10.58,6.21-20.76,13.3-31.87,18.33-8.36,3.78-9.83,9.2-8.65,16.91-19.29,10.1-38.18,21.05-58,30.05-18.57,8.45-28.83,22.95-33.68,41.44-2.71,10.35-4.91,21-4.71,32.16.7,38.7,8.39,76.51,13.67,114.62.52,3.8,2.9,5.63,6.49,6.21-.19,2.82-.37,5.65-.56,8.48-13.74,6.28-19.13,20.32-27.34,31.25s-10.7,8.31-15.81-1.6c-7.47-14.47-15.16-29-24.61-42.21C1432.49,1900.21,1430.49,1881.4,1414.94,1871.38Z" transform="translate(-362.39 -249.88)"/><path class="cls-6" d="M1802.85,1677.25l5.67,0c-18,47.84-35.55,95.83-54.18,143.41-3.66,9.32-3.06,16.11,1.67,24.45,23.41,41.34,38.7,86.4,58.67,129.33,2.45,5.26,4.8,11.52-4.83,10.91s-12.44,4.24-10.27,16.6c-29.19-26.13-55.93-48.34-84.27-68.53-4.13-2.94-4.41-6.82-3.72-11.6,5.67-39.4,11-78.84,16.64-118.24,3.23-22.62,7.81-45.09,9.91-67.81,1.23-13.36,5.86-22.43,17.5-29.12C1771.71,1697.44,1787.15,1687.11,1802.85,1677.25Z" transform="translate(-362.39 -249.88)"/><path class="cls-3" d="M2724.51,1930.37c11.7,29.18,14.47,60.41,20.41,90.87,9.88,50.75,10.48,102.84,21.15,153.54,2.13,10.09,3.87,19.19-13.52,15.47-14.13-3-29.55-2.07-44.13-.45-17.35,1.92-19.87-5.79-18.1-20.36,6.51-53.72,6.87-107.78,9.07-161.77,1.58-38.59-10-72.9-24.49-107.25-6.27-14.88-14.23-29.27-15.83-45.8,7,2.35,9,9.06,12.29,14.5,14.62,24.2,29.08,48.5,43.71,73Z" transform="translate(-362.39 -249.88)"/><path class="cls-3" d="M2120.12,1961.32c11.34,5.84,17.71,16.57,25,26.17,12.83,16.84,14.25,17.23,30.41,3.17,13.33-11.59,14-11.13,21.67,4.53,31.67,64.87,49.24,134.75,72.48,202.61,4.4,12.85,9,25.63,13.47,38.45-3.26.28-6.52.52-9.78.85-28.87,2.91-29.23,3.07-41.65-24.42-24.9-55.12-47.32-111.78-82.5-161.23C2129.39,2023.56,2125.65,1992.67,2120.12,1961.32Z" transform="translate(-362.39 -249.88)"/><path class="cls-5" d="M3445.07,2081.56c-9.55,6-8.61,17-12.1,25.77-5.8,14.62-10.62,29.63-17.25,48.44-8.42-27.25-18.26-50.33-22.42-74.4-8.78-50.71-36.67-89.7-70.89-125.35-5.18-5.39-6.15-16.39-17.27-15.19-18-28-36-55.94-53.83-84-2.19-3.45-7-7-3.87-11.48,2.54-3.63,7.15-1,10.72-.12,11.74,2.79,23.84,2.26,35.76,4.1,15.25,2.36,23.76,10.11,31.4,22.57,33.94,55.32,66.47,111.57,105,163.95C3440.34,2049.5,3445.05,2064.74,3445.07,2081.56Z" transform="translate(-362.39 -249.88)"/><path class="cls-4" d="M2917.87,2026c-1.08.06-2.63-.33-3.19.25-17.6,18.16-28.19,4.36-39.61-8.21-16.53-18.18-34.36-35.24-50.1-54.06-10.51-12.57-11.73-30-18.11-44.9-21.87-51.11-42.81-102.63-64.11-154,12,3.27,24,6.58,36,9.79,15.93,4.26,26.62,12.91,34.15,28.84,32.34,68.36,66.26,136,99.41,204C2915.12,2013.33,2919.25,2018.89,2917.87,2026Z" transform="translate(-362.39 -249.88)"/><path class="cls-3" d="M648.87,2052.18c22.11,7.86,38.14,25,55.56,39.13,18.82,15.26,38.63,20.46,61.51,20.24,70.8-.67,139.35,12.95,190.31,63.55,30.51,30.29,57.3,21.49,88.74,14.3q48.43-11.05,97-21.37c3.6-.77,7.57.26,11.37.46-32.4,23.92-66,46.2-96.62,72.56-13.52,11.64-25.2,25.66-42.36,34.19-23.77-40.15-58.93-71.21-87.23-108-13.63-17.7-38.15-21.94-59-24.53-42.59-5.27-85.35-14.91-128.49-9.35-17.95,2.31-29.43-3.74-38.94-16.58C684.25,2094.61,662.78,2076.43,648.87,2052.18Z" transform="translate(-362.39 -249.88)"/><path class="cls-6" d="M2280,1998.21c3.83,0,7.74.47,11.49-.08,13.11-1.94,19,4.33,26.16,15.47,30.6,47.72,38.28,100.92,41.87,155.59,1,15.23,3.88,30.35,4.59,45.59.21,4.71,2.53,13.47-7.17,13.73-8,.21-16,3.69-21.34-8.41-26.17-59.84-47.43-121.56-71.52-182.19-1.4-3.53-2.93-7-4.22-10.59C2249.55,1998.63,2249.57,1998.63,2280,1998.21Z" transform="translate(-362.39 -249.88)"/><path class="cls-6" d="M1932.76,2046.32c21.91,0,22.3,0,22.56,22.13.12,10.15,5.59,17.38,10.35,25.29,38.9,64.6,84.51,124.77,124.25,188.8,2.75,4.43,12.26,9.73,1.68,15.57-7.58,4.18-15.13,8.25-23.07-1.34-40.47-48.92-83.37-95.71-125.72-143-16.83-18.78-18-45-25.64-68.11-1.55-4.64-2.74-9.39-4-14.11C1906.15,2046.37,1906.15,2046.37,1932.76,2046.32Z" transform="translate(-362.39 -249.88)"/><path class="cls-5" d="M3240.13,2151.2c-17.87-10.34-10.2-28.92-12.7-43.51-3.83-22.38-1.79-45.62-2.56-68.39-.79-23.77-11.24-41.67-21.8-60.32-14.78-26.09-30-51.94-42.4-79.26-6.9-15.25-14.46-27.15-34.17-26.56-12.78.39-25.67-2.92-38.51-4.58-15.67-16.8-25.38-38.26-42.72-53.66,22-22.8,37.76-24.67,61-6.77,15.15,11.68,29.27,24.79,46.27,33.84,4.08,2.17,4.49,5.74,6.37,8.91,31.7,53.6,53.54,112.21,84.49,166.2,4.07,7.1,4.83,15.59,5.13,23.86,1.06,30.06,2.73,60.2,9.27,89.52C3261.66,2147.83,3255.91,2152.71,3240.13,2151.2Z" transform="translate(-362.39 -249.88)"/><path class="cls-5" d="M1876.63,2159.16c-12.88-10-16.6-24.7-21.43-39.3-11.61-35-24.32-69.71-36.66-104.5-1.27-3.57-3.74-7.62-1.24-10.68,2.84-3.47,7-.87,10.54.44,8.67,3.17,17.32,6.43,26.12,9.19,22.88,7.16,36.51,21.51,40.34,46,3.18,20.32,8.39,40.4,13.78,60.29,6.41,23.7,15.48,45.38,34.56,63.25,36.33,34,65.35,74.92,99.09,111.48,3.5,3.79,10.42,7.48,8.05,13s-9.93,1.94-15,3.51c-2.52.78-5.41.4-8.13.55,1.69-7.71-3.62-12-8.14-16.68-18.8-19.57-36.9-39.82-52.5-62C1942.84,2200.79,1911.05,2178.48,1876.63,2159.16Z" transform="translate(-362.39 -249.88)"/><path class="cls-5" d="M2484,1614.43c-5.36,14.75-16.35,26.26-27.64,35.25-34.78,27.68-51.86,63.63-58.24,106.52-2.93,19.7-8.77,39-12.78,58.51-.91,4.43-2.24,7-6.83,7.33-7.86-8.49-10.68-18.5-10.53-30,.32-25.66-5.27-51-3.64-76.84.53-8.37,1.74-15.89,6.32-23.2,27.49-43.86,58.5-85.45,84.08-130.52,2.08-3.67,4.81-6.24,8.44-7.18,22.4-5.81,44.89-11.3,69-13.49q-22,17.37-43.94,34.74C2467,1592.19,2467,1592.17,2484,1614.43Z" transform="translate(-362.39 -249.88)"/><path class="cls-5" d="M1755,1663.84c-23.74,20.7-47.69,41.19-71.15,62.21-10.68,9.58-11.09,24.24-11.59,36.48-2.35,56.53-6.78,112.89-10.42,169.32-.7,10.72-1.08,21.62,4.22,34.16-13.42-6.22-20-19.31-33.7-19.14-18.88-17-10.14-37.12-5.88-56.29,13.85-62.41,28.36-124.68,42.28-187.08,1.11-5,1.91-9.32,5.77-13q49.53-46.58,98.86-93.34c2-1.86,3.81-3.74,8-2.09C1775.47,1619.08,1762.24,1640.36,1755,1663.84Z" transform="translate(-362.39 -249.88)"/><path class="cls-5" d="M3075.91,2039c-13,15.47-12.35,14.75-27.58,1.26-17.43-15.44-31.12-31.58-25.57-57.07,1.34-6.15-1.6-11.9-5.42-16.59q-24.09-29.6-48.67-58.79c-3-3.56-6.13-8-12.16-6.39-20.52-36.45-47.9-68.48-68-106,38.29,12.33,81.85,11.89,101.79,58.45C3017.06,1916.35,3047.22,1977.36,3075.91,2039Z" transform="translate(-362.39 -249.88)"/><path class="cls-6" d="M2500.38,2216c-11,1.66-15.73-1.52-15.56-13.93.72-51.94-5.88-103.53-8.46-155.32-.05-1.09-.11-2.19-.25-3.27-1-7.25-8.76-16.94-2.54-20.87,6.69-4.23,16.44,2.65,24,6.56,9.65,5,18.49,11.54,28,16.78,6.41,3.53,7.07,8.84,7.24,15.15,1.3,46.94,2,93.92,7.22,140.66.54,4.82.52,8.53-5.77,9.3C2523,2212.41,2511.69,2214.3,2500.38,2216Z" transform="translate(-362.39 -249.88)"/><path class="cls-3" d="M1510.69,1918.08c-3.59-.58-6-2.41-6.49-6.21-5.28-38.11-13-75.92-13.67-114.62-.2-11.13,2-21.81,4.71-32.16,4.85-18.49,15.11-33,33.68-41.44,19.79-9,38.68-20,58-30.05,11.36,5.63,18.94,12,.87,18.42-33.18,11.86-32.52,43.43-40.17,69.42C1534.26,1826.68,1522.88,1872.5,1510.69,1918.08Z" transform="translate(-362.39 -249.88)"/><path class="cls-6" d="M2225.38,2242.91c-11,10.06-26.93,8.51-39.42,15.06-5.07,2.66-7.31-1.69-8.79-6.53-8.58-28-16.93-56.07-26.37-83.78-14.83-43.56-30.51-86.83-45.7-130.27-1.53-4.39-7.51-9.59.78-13.4,7.7-3.54,7.83,3,11,7.45,42.84,61.58,71.55,130.41,102.5,198.1C2221.14,2233.48,2222.91,2237.44,2225.38,2242.91Z" transform="translate(-362.39 -249.88)"/><path class="cls-5" d="M2724.51,1930.37l-9.44,11.71c-14.63-24.46-29.09-48.76-43.71-73-3.3-5.44-5.28-12.15-12.29-14.5-18.78-39.84-37.55-79.68-58.21-123.52,35,18.72,74.06,22.65,85.2,69.23,9.6,40.09,21.18,80.25,37.11,118.72C2724.56,1922.43,2724.11,1926.58,2724.51,1930.37Z" transform="translate(-362.39 -249.88)"/><path class="cls-6" d="M2171.06,1639.06c-14.45,23.92-25.72,44.41-38.8,63.67-12.49,18.38-18.8,36.61-11.58,58.93,5.15,15.91,7.35,32.76,11.45,49,2.09,8.28,1.07,13.2-8.29,15.67-9.89,2.6-19.16,7.67-29.08,10.11-5.25,1.29-10.87,9.75-15.76,3.11-5.49-7.47-12.81-15.24-9.43-26.54,15.1-50.42,30.72-100.7,42.71-152a10.72,10.72,0,0,1,10.51-8.78C2138.17,1651.57,2152.17,1645.74,2171.06,1639.06Z" transform="translate(-362.39 -249.88)"/><path class="cls-5" d="M2701.74,1769.12c-5.25-13.62-10.39-27.29-15.8-40.85-2.37-6,0-10.07,3.48-14.81,19.1-25.89,34.22-54.32,51.43-81.41,10.77-17,23.81-32.47,36-48.47,2.3-3,5.73-5.88,9.81-5,18.94,4.21,38.93,1.2,61.71,8.67-23.61,8.85-43.53,16.4-63.5,23.79-9.82,3.63-13.45,8-2.26,14.69-9.84,23.68-25,44.5-36.33,67.38-8.64,17.48-22.43,32.41-26.11,52.36-10.91,4-7.45,12.72-6.62,20.55Z" transform="translate(-362.39 -249.88)"/><path class="cls-3" d="M1876.63,2159.16c34.42,19.32,66.21,41.63,89.37,74.6,15.6,22.21,33.7,42.46,52.5,62,4.52,4.72,9.83,9,8.14,16.68-23.2,5.3-46-4.16-69.11-2.11-2.81.25-4.51-2.55-5.75-5.12C1928,2255.88,1903.31,2207,1876.63,2159.16Z" transform="translate(-362.39 -249.88)"/><path class="cls-3" d="M2570.48,1713.19c41.2,86.15,75.19,175.36,112,263.39,3.21,7.7,2.31,15.32.87,22.45-2.52,12.5-2.59,25-3.16,37.53-.2,4.66,2.94,13.49-5.81,12.06-7-1.15-18.8,2.09-19.18-12-.71-26.19-2.21-52.53-7.69-78.09-10.82-50.39-32.32-97.2-51.32-144.81-11.31-28.32-22.46-56.69-33.68-85C2562.94,1722.34,2564.22,1716.47,2570.48,1713.19Z" transform="translate(-362.39 -249.88)"/><path class="cls-3" d="M3156.6,1706.64c7.09,40.15,10.3,80.68,13.92,123.53-22.08-9.81-37-25.27-54.47-37-10.32-7-19.83-15.34-33.15-16.49-10.41-.91-6.31-7.66-4.85-13.28,8.3-32.1,16.56-64.21,25.13-97.44,6.06,6.39,13.5,8.66,21.81,8.21-4.62,22-3.63,44.25-3.18,66.43.11,5.24-4.29,15.73,6.43,14.36,8.11-1,21.62,2.06,20.42-15.67C3147.93,1728.53,3147.57,1715.92,3156.6,1706.64Z" transform="translate(-362.39 -249.88)"/><path class="cls-5" d="M2104.41,1608c-21.16,19.63-36.88,43.55-51.83,67.81-24.51,39.77-49.93,79.07-69.5,121.68-1.57,3.4-3.34,7-7.58,8,16.54-59.24,38.18-116.76,58.84-174.61a13.83,13.83,0,0,1,3.4-5.5c28.54-26.05,57.17-52,85-79.16-.06,7.67-6.44,16.62-9.09,26.28C2110.36,1584.29,2101.43,1594.6,2104.41,1608Z" transform="translate(-362.39 -249.88)"/><path class="cls-5" d="M2570.48,1713.19c-6.26,3.28-7.54,9.15-8,15.44-10.78-9.57-10.37-19.84-3.48-31.85,23.83-41.53,45.26-84.33,65.29-127.8,4.46-9.69,9.92-14.25,21-13.23,25.58,2.34,51-2.91,81.75-3.89-17.37,10.31-30.66,18-43.68,26.05-4.95,3.07-11.71,6.19-11.26,12.81.52,7.44,7.79,7.57,13.73,8.76,5.34,1.08,10.28,3.47,13.55,8.27-16.27,3.77-32.77,6.8-48.75,11.55-11.8,3.51-27.3,1.51-34.81,11.32-16,20.9-30.57,43.22-36.82,69.57C2572.65,1702.2,2570.77,1707.17,2570.48,1713.19Z" transform="translate(-362.39 -249.88)"/><path class="cls-3" d="M2876.27,1828.77c8.41,1.71,11,8.08,14.82,13,29.93,38.51,50.36,82.94,76.78,123.63,6.59,10.15,2.41,21.26,2.62,32,0,1.29-1.33,3-2.53,3.85-9.34,6.52-36.74-1.7-42.37-11.69-22-39-31.53-82-41.05-125.06C2882,1852.83,2876.46,1841.78,2876.27,1828.77Z" transform="translate(-362.39 -249.88)"/><path class="cls-3" d="M3375.35,1881.47c9.17,17.46,11.48,36.84,14.75,56.37-19.09-27.92-39.66-55-56.61-84.17-7.47-12.86-17.07-18.3-29.19-19.78-10.41-1.27-15.7-6.22-19.66-14.51q-21.12-44.27-42.17-88.58l2.39-2.39c10.91,1.82,21.5,11.78,32.89,1.28,3.89.56,4.94,3.93,6.56,6.69,22,37.52,43.53,75.37,66.4,112.37C3357.81,1860.22,3360.63,1875.54,3375.35,1881.47Z" transform="translate(-362.39 -249.88)"/><path class="cls-3" d="M2579,1700.19c6.25-26.35,20.85-48.67,36.82-69.57,7.51-9.81,23-7.81,34.81-11.32,16-4.75,32.48-7.78,48.75-11.55,2.66.48,7.27-1.31,5.4,4.46a3.58,3.58,0,0,1-2.42,2c-43.23,5.12-38.74,42.55-47.86,70.7-1.66,5.13-2.67,10.47-4,15.7-6.88,26.18-6.87,26.15-31.22,16C2605.88,1711.15,2592.44,1705.69,2579,1700.19Z" transform="translate(-362.39 -249.88)"/><path class="cls-3" d="M1414.94,1871.38c15.55,10,17.55,28.83,27.43,42.62,9.45,13.19,17.14,27.74,24.61,42.21,5.11,9.91,7.5,12.67,15.81,1.6s13.6-25,27.34-31.25q23,30.6,45.88,61.21c1.55,2.07,4.59,3.93,3.13,7-1.84,3.87-5.53,2.2-8.58,1.92-36.33-3.36-72.15-11.53-108.81-11.55-6,0-9.64-2.41-10.07-8.24-2.46-33.76-10.74-66.43-18.11-99.28C1413.14,1875.73,1414.44,1873.47,1414.94,1871.38Z" transform="translate(-362.39 -249.88)"/><path class="cls-3" d="M2972.81,1683.44c11.6,4.91,20.51-3,30.25-6.54,6-2.17,11.65-5.28,18-8.21,4.07,8.26-2.89,11.68-5.51,16.13-6.87,11.71-13.81,23.54-22.18,34.17-18.12,23-29.2,48.14-26,81.1-23.25-12.86-47.65-13.8-69.24-23.92,10.51-22.39,28.49-39.29,43.86-57.93C2951.76,1706.37,2957.48,1690.47,2972.81,1683.44Z" transform="translate(-362.39 -249.88)"/><path class="cls-5" d="M2972.81,1683.44c-15.33,7-21,22.93-30.83,34.8-15.37,18.64-33.35,35.54-43.86,57.93-10.59,3.45-20.18-3-30.44-3.72-9.75-.74-6.53-13.31-3.47-17.14,35.17-44,65.51-92.51,114.67-127C2981.23,1648.58,2969,1665.27,2972.81,1683.44Z" transform="translate(-362.39 -249.88)"/><path class="cls-3" d="M1008.07,2105.8c-30-6.82-59.89.65-89.86.32-10.91-.12-31.79-18.92-31.93-29.26,0-1.33.68-3.55,1.59-3.89,17.78-6.63,13.39-21.92,13-34.91s3.86-15.85,15.16-9.87a64.27,64.27,0,0,0,12.18,4.6c7,2.07,8.29,5.85,4.89,12.25-3.31,6.23-5.72,12.92-8.83,19.25-2.4,4.89-2.89,9.27,1.26,13.47,4.63,4.67,9.62,4.24,14.93,1.43,10.56-5.61,20.93-11.64,31.79-16.62,9.67-4.43,47,5.66,52.65,14.23,5.21,7.83-3,13.92-4.53,20.93C1019.29,2103,1015,2107.35,1008.07,2105.8Z" transform="translate(-362.39 -249.88)"/><path class="cls-4" d="M2974.8,2127.66c0,19.12.21,38.25-.08,57.37-.17,11.23-12.44,19.74-23.53,17.68-6.64-1.23-5.37-5.69-5.45-9.84-.43-24.59-1-49.18-1.13-73.78-.19-31.07-.69-62.09-6.26-92.79-.28-1.53-.72-4.29-.21-4.52,8.82-3.91,18.13-1.44,27.23-1.66,6.53-.15,5.74,5.06,6,9.38C2973.57,2062.19,2976.67,2094.84,2974.8,2127.66Z" transform="translate(-362.39 -249.88)"/><path class="cls-5" d="M1093.05,1991c11.44-2.34,14.09,1.32,9.46,12.21-8.85,20.79-7.57,24.17,11.37,36.23,14.73,9.38,30.83,15.76,47.57,20.43,3.52,1,6.59,1.52,5.57,5.92-.89,3.86-4.34,1.84-6.72,2.37-6.87,1.55-19-4.9-19.67,3.8-.6,8.54,13.1,5.53,20.12,8.45,11.08,4.61,19.47-1,24.71-11.88,3.33-6.91,35.49-15.58,41.94-12.07,3.68,2,3.8,5.67,2.79,8.52-4.32,12.14-5.52,25.41-12.88,36.46-37.44-6.18-75-11.12-113-12.91-7.89-.38-14.19-4.14-11-12,6-15.11-3.89-19.25-13.81-24.39-5.24-2.71-11.44-4.33-13.85-10.74l4.33-5.52c6.85-2,10.75,3.52,15.86,6.06,2.18,1.08,4.59,3.34,7.24.69,2-2,1.08-4.14-.16-5.8C1081.43,2021.47,1090.83,2006.25,1093.05,1991Z" transform="translate(-362.39 -249.88)"/><path class="cls-3" d="M2720.21,1745.5c3.68-20,17.47-34.88,26.11-52.36,11.31-22.88,26.49-43.7,36.33-67.38,1,.11,2.26-.07,3.13.39,22,11.6,21.89,11.59,16.33,36.5-6.14,27.47-12.21,54.95-17.91,82.52-1.84,8.91-5.18,12.09-14.48,8.32C2753.93,1747.1,2737.07,1746,2720.21,1745.5Z" transform="translate(-362.39 -249.88)"/><path class="cls-6" d="M721.34,1950.11c0-14.69,0-32.66,0-50.63,0-8.22,6.65-10.68,12.15-13.92,7.26-4.29,9,3.14,12.7,6.43,19.56,17.25,25.57,40.3,28.43,64.91.68,5.84,4.21,11.45,4.35,17.22.16,6.35,12.94,12.14,2.88,17.68-9.68,5.34-19.37,18.76-33,6.18a25.7,25.7,0,0,0-7-4.25C724.22,1985.9,712.77,1974.68,721.34,1950.11Z" transform="translate(-362.39 -249.88)"/><path class="cls-3" d="M2701.74,1769.12l11.85-3.07c24.49,61.71,51,122.78,68,187.09,5.5,20.82,4.64,43.34,6.52,65.1.32,3.68.53,7.77-4.43,9.78-9.22-7.3-7.56-18.83-9.84-28.24-11.83-49-31.27-95.32-47.1-142.91C2717.13,1828,2710,1798.4,2701.74,1769.12Z" transform="translate(-362.39 -249.88)"/><path class="cls-5" d="M948.77,1959.41c25.77,5.82,51.51,11.75,77.31,17.39,5.14,1.12,6.74,4.93,8.71,8.78,6.41,12.53,12.42,25.29,19.44,37.47,3,5.22,3.59,8.84-1.27,12.62-7.76,1.23-15.1-.78-22.24-3.36-29.45-10.67-59.66-18.72-90-26.23,17.2-12.92,14.31-28.24,5.3-44.29Z" transform="translate(-362.39 -249.88)"/><path class="cls-3" d="M1326.16,2144.19c9.6-15.62,26.07-23.76,39.08-35.67,8.79-8,18.31-15.29,27.74-22.58s10.13-14.84,5.15-25.64c-13.64-29.54-28.8-58.44-39.53-89.28,17.41,12,28.15,30,40.3,46.53,13.91,18.87,26.1,39,38.65,58.86,2.55,4,7.3,8.88-1.12,13.27-34.82,18.15-69.38,36.8-104.14,55.07C1330.77,2145.56,1328.23,2144.42,1326.16,2144.19Z" transform="translate(-362.39 -249.88)"/><path class="cls-5" d="M886.76,1807.69c26.19,10.18,52.29,20.56,78.6,30.39,6.59,2.47,6.25,5.35,2,9.11-16.86,15-29.6,33.38-42.85,51.35-8.91,12.09-17.47,2.07-26-.24-10.75-2.93-4.6-9.44-3.09-15.46,6.47-25.76,12.85-51.68-14.69-72.67Z" transform="translate(-362.39 -249.88)"/><path class="cls-5" d="M3375.35,1881.47c-14.72-5.93-17.54-21.25-24.64-32.72-22.87-37-44.36-74.85-66.4-112.37-1.62-2.76-2.67-6.13-6.56-6.69,5.61-10.78-2.89-21-1.84-31.59C3326.25,1750.15,3361.65,1810,3375.35,1881.47Z" transform="translate(-362.39 -249.88)"/><path class="cls-3" d="M1065.65,2041.4c2.41,6.41,8.61,8,13.85,10.74,9.92,5.14,19.86,9.28,13.81,24.39-3.14,7.84,3.16,11.6,11,12,37.93,1.79,75.51,6.73,113,12.91-.09,4.19,1.38,9.46-6,8.46-47.26-6.38-94.79-.67-142.38-3.31-3.2-3-.12-6.12,1.07-8.46,7.51-14.84,4-24.91-12.14-29.9-8.44-2.6-8.72-6.79-3.2-12.93C1058.57,2050.89,1062,2046,1065.65,2041.4Z" transform="translate(-362.39 -249.88)"/><path class="cls-3" d="M1131.88,2011.37c-12.81,2.32-15.7-1.91-9.75-14.32,7.77-16.21,18-30.76,28.28-45.29,2.12-3,6-6.21,9.82-4.65,14.61,6,27.82,14.54,40.19,24.34,3.62,2.88,2.07,6.42-.67,8.06C1178.31,1992.29,1160.43,2012.67,1131.88,2011.37Z" transform="translate(-362.39 -249.88)"/><path class="cls-4" d="M807.93,1957.13c25.67,21.64,50.3,42.35,74.86,63.14,5.32,4.5,7.91,33.25,3.16,38.32-4.12,4.4-8.21,6.45-13-.6-7.3-10.84-15.79-20.87-23.69-31.31-1.3-1.71-1.78-4.92-3.32-5.44-16.91-5.8-28.89-14.46-23.73-35.24.71-2.83-3-3.91-5.72-4.68C798.11,1976,798.11,1976,807.93,1957.13Z" transform="translate(-362.39 -249.88)"/><path class="cls-5" d="M2469.18,1801.42c14.67,48.55,28.1,93.25,41.74,137.88,2.31,7.54,5.56,14.79,8.32,22.19,1.15,3.07,2.4,6.86-1.08,8.62-3.72,1.89-6.23-1.72-7.64-4.45-7-13.53-13.47-27.29-20.36-40.86-3.93-7.75-7.29-16.07-12.62-22.78C2453.15,1871.3,2460.08,1838.12,2469.18,1801.42Z" transform="translate(-362.39 -249.88)"/><path class="cls-3" d="M571.22,1846.69c35.86,4.48,71.71,9.08,107.59,13.42,17.94,2.17,35.71,6.93,53-4.95,10.5-7.21,21.87-5.94,28.37,7.67,5.53,11.59,16.41,20.56,17,34.59-8.7-5.11-13.2-14.13-19.59-21.35-13.22-15-18.91-17.25-33.71-5.08-11.66,9.59-22,10.47-35.56,6.16C657.2,1867.31,624,1868,592.47,1860,583.74,1857.77,576.27,1854.38,571.22,1846.69Z" transform="translate(-362.39 -249.88)"/><path class="cls-4" d="M3156.6,1706.64c-9,9.28-8.67,21.89-7.94,32.64,1.2,17.73-12.31,14.64-20.42,15.67-10.72,1.37-6.32-9.12-6.43-14.36-.45-22.18-1.44-44.47,3.18-66.43a89.28,89.28,0,0,0,9.21-2.67c19.07-7.76,19.05-7.8,20.46,12.41-4.4,3.49-2.81,5.57,1.63,7Q3156.44,1698.77,3156.6,1706.64Z" transform="translate(-362.39 -249.88)"/><path class="cls-4" d="M3140.38,2087.19c-2.77,20.89-6.06,44.58-9,68.32-.64,5.18-2.21,7.91-7.85,8-6.7.15-8.48-3.41-8.3-9.18.92-29.53-2.63-58.72-6.95-87.84-.66-4.38-.59-7.08,5.13-7.55C3129.51,2057.64,3141.24,2068.36,3140.38,2087.19Z" transform="translate(-362.39 -249.88)"/><path class="cls-5" d="M2771.53,2068.69c-.55-2.67-1.59-5.35-1.58-8,.05-9.24,8.51-11.54,14.32-13,8.23-2.12,5.15,6.64,5.44,10.23q4.5,54.57,7.87,109.23c.49,7.69,1.19,15.19,3.42,22.58,1.21,4,.9,7.85-4.53,8.26-4.45.34-7.91.43-8.37-6.4C2785.29,2150.25,2776.56,2109.72,2771.53,2068.69Z" transform="translate(-362.39 -249.88)"/><path class="cls-3" d="M3109.42,1950.17c9.48,28.47,40,47.21,34.95,82.29-.67,4.63,2.75,13.83-5.28,12.71-8.6-1.2-21.84.28-23.85-12.25-4.29-26.8-6.92-53.88-10.23-80.84Z" transform="translate(-362.39 -249.88)"/><path class="cls-5" d="M2670.65,2193.5c-5.74-1.18-6.09-3.34-6.21-5.5-2-37.12-4-74.23-5.64-111.36-.22-5-3.62-13.67,7.13-12.46,6.94.77,14.79,1.67,14,12.06C2676.8,2115.18,2673.75,2154.13,2670.65,2193.5Z" transform="translate(-362.39 -249.88)"/><path class="cls-3" d="M940.69,2006.08c30.37,7.51,60.58,15.56,90,26.23,7.14,2.58,14.48,4.59,22.24,3.36-16.88,22.74-16.92,22.82-41,12.44-23.52-10.15-46.77-21-70.54-30.53C930.74,2013.3,932.81,2010.44,940.69,2006.08Z" transform="translate(-362.39 -249.88)"/><path class="cls-3" d="M2141.52,1541.34c1-8,4.65-5.66,8.51-2.21,8.12,7.27,16.1,14.7,24.3,21.88,4,3.54,6.48,7,3.56,12.63-1.72,3.32-2.26,7.24-3.58,10.8-3.56,9.65-4.64,22.81-11.6,27.89-7.27,5.32-15.42-8.22-25-10.11-5.77-1.13-11.44-2.81-17.36-3.74-5-.78-6.3-4-.73-7,4.91.16,9.85.72,14.72.36,6.58-.49,14.36,3,18.65-5.9,4.22-8.7,4-16-2.4-24C2146,1556.24,2142.26,1549.22,2141.52,1541.34Z" transform="translate(-362.39 -249.88)"/><path class="cls-5" d="M2667,1709.22c4.44-20.9,5.7-43.26,14.38-62.21,6.24-13.61,26-14.33,44.16-20.91C2706.93,1657.06,2690.19,1684.41,2667,1709.22Z" transform="translate(-362.39 -249.88)"/><path class="cls-6" d="M666.41,1919.38c-.21,31,.21,30.21-27.15,16.5-13-6.53-13.33-12.91-5.63-23,2.3-3,4.26-6.27,6.29-9.48,5.21-8.26,12.19-15.79,22.29-12.36,9.85,3.35,2.62,13.35,4.11,20.2C666.89,1913.85,666.41,1916.67,666.41,1919.38Z" transform="translate(-362.39 -249.88)"/><path class="cls-5" d="M3287,2095.53c14.81-2.39,21,0,15.2,14.82-3.46,8.83-4.23,18.85-5.29,28.44-.68,6.23-2.9,8.61-9.17,7.93-5-.53-9.91-.08-10.5-7.11-1.09-13-3.58-25.88-3.37-38.79C3274,2089.69,3284.6,2098.44,3287,2095.53Z" transform="translate(-362.39 -249.88)"/><path class="cls-3" d="M1116.57,2022.47c13.33-2,26.08-2.73,38.69-5.92,10.83-2.73,18.13,5.43,25.07,12.45,5.1,5.16-.94,9-2.08,13.22-1.48,5.58-5,6.26-11.15,5.26C1147.74,2044.35,1132.74,2033,1116.57,2022.47Z" transform="translate(-362.39 -249.88)"/><path class="cls-5" d="M3033.93,1649.87c-15.4,6.58-28.26,12.35-41.36,17.52-5,2-9.15,1.13-6.28-6,.2-.51.48-1,.67-1.5,4.26-11.72-1.2-30.81,13-33.95C3013.54,1622.91,3021.22,1640.45,3033.93,1649.87Z" transform="translate(-362.39 -249.88)"/><path class="cls-3" d="M2553.42,1538.28c3.71,10.86-1.34,17-7.7,22.17-15.66,12.76-31.55,25.23-47.38,37.78-3.06,2.44-5.31,7.52-10.49,2.26-5.39-5.46-1.74-8.93,2.15-12C2510.71,1571.89,2531.58,1555.53,2553.42,1538.28Z" transform="translate(-362.39 -249.88)"/><path class="cls-3" d="M2350,1599.34c-6.79-2-18.14,3.63-20.54-4.31-2.49-8.28,9.79-9.49,15.29-14.13,2.47-2.09,5.71-3.27,8.17-5.37,8.07-6.85,16.08-11.33,26.24-3.39,3.43,2.67,6.61,4.91,2.9,8.87-7.17,7.66-9.82,21.75-25.16,18.39C2354.81,1599,2352.53,1599.34,2350,1599.34Z" transform="translate(-362.39 -249.88)"/><path class="cls-5" d="M2141.52,1541.34c.74,7.88,4.44,14.9,9.07,20.67,6.4,8,6.62,15.26,2.4,24-4.29,8.87-12.07,5.41-18.65,5.9-4.87.36-9.81-.2-14.72-.36C2125.29,1574.07,2131.67,1557,2141.52,1541.34Z" transform="translate(-362.39 -249.88)"/><path class="cls-3" d="M1093.05,1991c-2.22,15.27-11.62,30.49-.13,45.85,1.24,1.66,2.12,3.83.16,5.8-2.65,2.65-5.06.39-7.24-.69-5.11-2.54-9-8.08-15.86-6.06,2.39-9-3.37-15.76-6.5-23.24,9-6.25,10.73-16.07,12.67-25.79Z" transform="translate(-362.39 -249.88)"/><path class="cls-3" d="M2853.79,1600.69c3.44-6.56,10.64-8.43,14.86-4.72,6,5.28,1.47,14.16,2.23,21.43.59,5.72-2,7.73-7.36,7.72-14.82,0-29.68,12.73-44.44-.21C2830.59,1616.76,2846.8,1615.34,2853.79,1600.69Z" transform="translate(-362.39 -249.88)"/><path class="cls-3" d="M1599.44,1686.73c16.78-9.3,31.3-17.64,46.17-25.31,2.45-1.27,7.35-5.37,9.47.36,1.59,4.29,4.79,9.08,1.74,14C1649.69,1687.19,1613.31,1695.4,1599.44,1686.73Z" transform="translate(-362.39 -249.88)"/><path class="cls-5" d="M2693,1587.52c11.38-7.53,21.22-14,31.05-20.55,4.51-3,7-1.79,7.49,3.57a27.22,27.22,0,0,1-.11,3.25C2730.53,1606.23,2728.78,1607,2693,1587.52Z" transform="translate(-362.39 -249.88)"/><path class="cls-3" d="M1795.31,1588.64c7.32,22.09-2.15,41.63-5.46,61.88-1.58,9.67-11.85,2.86-20.2,5.21Z" transform="translate(-362.39 -249.88)"/><path class="cls-5" d="M705.27,1914.27c0,13,.46,26.08-.24,39.08-.26,4.75,3.6,14.31-5.71,13.09-6.92-.9-16.37-3.7-15.7-15.24C684.51,1935.57,694.72,1925.14,705.27,1914.27Z" transform="translate(-362.39 -249.88)"/><path class="cls-5" d="M3114.62,1625.31c11.55,8.24,20.24,14.64,29.13,20.73,7.05,4.84,6,6.69-1.57,10.33-24.71,11.91-27.73,10.49-27.57-15.81C3114.64,1636.31,3114.62,1632.07,3114.62,1625.31Z" transform="translate(-362.39 -249.88)"/><path class="cls-3" d="M1955,1518.4c10.63-4.14,19.14-2.32,25.33,10.48-19.6,3.6-35.45,17-55.82,17.61,2.55-7.23,9.85-9.24,14.9-13.72C1944.7,1528.08,1954.15,1527.86,1955,1518.4Z" transform="translate(-362.39 -249.88)"/><path class="cls-5" d="M1955,1518.4c-.85,9.46-10.3,9.68-15.59,14.37-5.05,4.48-12.35,6.49-14.9,13.72-7.49-3.12-14.52-6.85-20-15C1920.74,1523.42,1937.69,1520.28,1955,1518.4Z" transform="translate(-362.39 -249.88)"/><path class="cls-3" d="M3317,2012.56c2.76,20.2-5.38,38.68-7.48,58-.45,4.16-2.51,5.69-6.42,5.35-4.49-.41-5.22-3-3.94-6.79C3305.48,2050.43,3307.62,2030.42,3317,2012.56Z" transform="translate(-362.39 -249.88)"/><path class="cls-3" d="M3228.17,1705.69c8.2-3.53,15.58-6.63,22.88-9.88,6.4-2.86,11.55-4,11.74,5.88.11,6.16,8.15,13,2,17.9-5.63,4.49-11.5-3.24-17.31-5.34C3241,1711.9,3234.83,1708.69,3228.17,1705.69Z" transform="translate(-362.39 -249.88)"/><path class="cls-5" d="M1076.15,1986.85c-1.94,9.72-3.68,19.54-12.67,25.79a34.7,34.7,0,0,1-2.43-4.14c-3.61-8.58-14.43-18.35-9.82-25.07C1056.63,1975.56,1067.22,1987.31,1076.15,1986.85Z" transform="translate(-362.39 -249.88)"/><path class="cls-5" d="M2853.79,1600.69c-7,14.65-23.2,16.07-34.71,24.22-5.66.31-10.36-2.44-17.88-6.06C2819.84,1611.87,2835.44,1602.74,2853.79,1600.69Z" transform="translate(-362.39 -249.88)"/><path class="cls-3" d="M1032.77,2100.47c3.06-6.54,3.54-15.44,13.86-15.55,3.91,0,8.52.31,7.2,5.93-1.55,6.6-2.46,14.66-11.28,15.64C1038.86,2106.9,1033.36,2107,1032.77,2100.47Z" transform="translate(-362.39 -249.88)"/><path class="cls-3" d="M789.65,2015.49c-2.37-.81-10.51,2-9.3-2.72,2.57-9.92,14.23-9.68,22.14-13.35,3.91-1.81,4.47,1.85,4.29,5.78C806.27,2016.32,799.19,2016.64,789.65,2015.49Z" transform="translate(-362.39 -249.88)"/><path class="cls-3" d="M614.2,1890.68c.5-4.35-.59-9.74,5.29-8.29,4.16,1,12,.76,11.19,6.44-.72,5.08-5.9,12.91-9.87,13.4C614.18,1903.05,616.1,1894.44,614.2,1890.68Z" transform="translate(-362.39 -249.88)"/><path class="cls-3" d="M2461.86,2174.36c-6.65-12.22-6.08-24.49-.27-36.8C2464.36,2149.81,2463.71,2162.08,2461.86,2174.36Z" transform="translate(-362.39 -249.88)"/><path class="cls-3" d="M1191.56,1998.26c.44,9.5-1.57,15.61-7.79,19.14-.84.48-7.31-5-7.11-7.4C1177.32,2001.9,1185.59,2003.1,1191.56,1998.26Z" transform="translate(-362.39 -249.88)"/><path class="cls-3" d="M682.91,1914.28c-2.87-7.79-4.06-13,1.93-16.63,2.78-1.71,6.34-.48,7.1,1.65C694.59,1906.71,687.67,1908.92,682.91,1914.28Z" transform="translate(-362.39 -249.88)"/><path class="cls-3" d="M942.57,2061.46c1.31-9.62,2.2-16.21,9.51-17.7,2.62-.53,9.4,1.31,8.91,4.72C959.8,2056.76,951.05,2056.44,942.57,2061.46Z" transform="translate(-362.39 -249.88)"/><path class="cls-3" d="M1237.26,2153.73l.23-6.33a139.27,139.27,0,0,0,34.85,3.69c-.06,1.54-.12,3.09-.19,4.64Z" transform="translate(-362.39 -249.88)"/><path class="cls-3" d="M3156.29,1690.89c-4.44-1.42-6-3.5-1.63-7C3157.3,1685.74,3157.47,1688.16,3156.29,1690.89Z" transform="translate(-362.39 -249.88)"/><path class="cls-3" d="M3103.78,1942.61a14.41,14.41,0,0,1,.73,2.6c0,.31-.56.69-.87,1a15.16,15.16,0,0,1-.65-2.53C3103,1943.38,3103.49,1943,3103.78,1942.61Z" transform="translate(-362.39 -249.88)"/><path class="cls-3" d="M2467.35,1716.76c-.56-.73-1.13-1.45-1.7-2.17l1.57-.13c-.08.85-.17,1.69-.26,2.53Z" transform="translate(-362.39 -249.88)"/><path class="cls-3" d="M2514.51,2011.51c.44,1.06.88,2.12,1.33,3.18l-3.17-1.25C2513.28,2012.8,2513.9,2012.16,2514.51,2011.51Z" transform="translate(-362.39 -249.88)"/><path class="cls-3" d="M3242.47,1730.8c-.51-.88-1.66-2.13-1.4-2.58,1.19-2.1,2.57-1.2,3.78.2Z" transform="translate(-362.39 -249.88)"/><path class="cls-5" d="M946,1961.79c-.06-1.42-.73-3.56-.07-4.13,1.65-1.41,2.26.49,2.85,1.75Z" transform="translate(-362.39 -249.88)"/></svg>